<svg xmlns="http://www.w3.org/2000/svg" xmlns:xlink="http://www.w3.org/1999/xlink" width="1024" zoomAndPan="magnify" viewBox="0 0 768 767.999994" height="1024" preserveAspectRatio="xMidYMid meet" version="1.0"><defs><g/><clipPath id="1d5c57f03f"><path d="M 257.214844 166.078125 L 347.628906 166.078125 L 347.628906 256.492188 L 257.214844 256.492188 Z M 257.214844 166.078125 " clip-rule="nonzero"/></clipPath><clipPath id="051a2c90cd"><path d="M 216 128 L 346 128 L 346 258 L 216 258 Z M 216 128 " clip-rule="nonzero"/></clipPath><clipPath id="79c4c95a8e"><path d="M 179.921875 221.148438 L 309.472656 91.601562 L 358.261719 140.390625 L 228.714844 269.941406 Z M 179.921875 221.148438 " clip-rule="nonzero"/></clipPath><clipPath id="0ba010b43f"><path d="M 179.921875 221.148438 L 309.472656 91.601562 L 358.261719 140.390625 L 228.714844 269.941406 Z M 179.921875 221.148438 " clip-rule="nonzero"/></clipPath><clipPath id="8e29f1823a"><path d="M 324.792969 320.722656 L 388.910156 320.722656 L 388.910156 524.078125 L 324.792969 524.078125 Z M 324.792969 320.722656 " clip-rule="nonzero"/></clipPath><clipPath id="59c819970e"><path d="M 315.894531 220 L 397.980469 220 L 397.980469 261.464844 L 315.894531 261.464844 Z M 315.894531 220 " clip-rule="nonzero"/></clipPath><clipPath id="d95da045ce"><path d="M 315.800781 261.210938 L 397.886719 261.210938 L 397.886719 302.851562 L 315.800781 302.851562 Z M 315.800781 261.210938 " clip-rule="nonzero"/></clipPath></defs><rect x="-76.8" width="921.6" fill="#ffffff" y="-76.799999" height="921.599993" fill-opacity="1"/><rect x="-76.8" width="921.6" fill="#ffffff" y="-76.799999" height="921.599993" fill-opacity="1"/><g clip-path="url(#1d5c57f03f)"><path fill="#fff505" d="M 257.214844 256.492188 C 257.214844 244.570312 259.5625 232.769531 264.121094 221.757812 C 268.683594 210.742188 275.371094 200.738281 283.800781 192.308594 C 292.226562 183.878906 302.234375 177.195312 313.246094 172.632812 C 324.257812 168.070312 336.0625 165.722656 347.980469 165.722656 L 347.980469 195.734375 C 340.003906 195.734375 332.101562 197.308594 324.730469 200.359375 C 317.359375 203.414062 310.660156 207.890625 305.019531 213.53125 C 299.378906 219.171875 294.902344 225.871094 291.851562 233.242188 C 288.796875 240.613281 287.226562 248.511719 287.226562 256.492188 Z M 257.214844 256.492188 " fill-opacity="1" fill-rule="nonzero"/></g><g clip-path="url(#051a2c90cd)"><g clip-path="url(#79c4c95a8e)"><g clip-path="url(#0ba010b43f)"><path fill="#f80303" d="M 345.203125 152.675781 C 343.492188 152.679688 341.78125 152.726562 340.074219 152.8125 C 338.363281 152.902344 336.65625 153.03125 334.953125 153.199219 C 333.253906 153.371094 331.554688 153.585938 329.863281 153.839844 C 328.171875 154.09375 326.484375 154.386719 324.808594 154.722656 C 323.128906 155.0625 321.460938 155.4375 319.800781 155.855469 C 318.140625 156.273438 316.496094 156.734375 314.859375 157.230469 C 313.21875 157.730469 311.597656 158.269531 309.988281 158.847656 C 308.375 159.425781 306.78125 160.042969 305.199219 160.699219 C 303.621094 161.359375 302.058594 162.050781 300.511719 162.785156 C 298.964844 163.519531 297.4375 164.289062 295.929688 165.097656 C 294.417969 165.90625 292.933594 166.75 291.464844 167.628906 C 289.996094 168.511719 288.554688 169.425781 287.128906 170.378906 C 285.707031 171.328125 284.308594 172.316406 282.9375 173.335938 C 281.5625 174.355469 280.214844 175.410156 278.890625 176.496094 C 277.570312 177.582031 276.273438 178.699219 275.003906 179.847656 C 273.738281 180.996094 272.5 182.175781 271.289062 183.386719 C 270.078125 184.597656 268.898438 185.835938 267.75 187.101562 C 266.601562 188.371094 265.484375 189.664062 264.398438 190.988281 C 263.3125 192.3125 262.257812 193.660156 261.238281 195.03125 C 260.21875 196.40625 259.234375 197.804688 258.28125 199.226562 C 257.328125 200.648438 256.414062 202.09375 255.53125 203.5625 C 254.652344 205.027344 253.808594 206.515625 253 208.027344 C 252.191406 209.535156 251.421875 211.0625 250.6875 212.609375 C 249.957031 214.152344 249.261719 215.71875 248.605469 217.296875 C 247.945312 218.878906 247.328125 220.472656 246.75 222.082031 C 246.171875 223.695312 245.632812 225.316406 245.136719 226.953125 C 244.636719 228.589844 244.175781 230.238281 243.757812 231.898438 C 243.339844 233.558594 242.964844 235.226562 242.628906 236.90625 C 242.289062 238.582031 241.996094 240.265625 241.742188 241.960938 C 241.488281 243.652344 241.273438 245.347656 241.105469 247.050781 C 240.933594 248.753906 240.804688 250.460938 240.714844 252.167969 C 240.628906 253.878906 240.582031 255.589844 240.578125 257.300781 L 216.003906 257.230469 C 216.011719 255.117188 216.066406 253.007812 216.175781 250.898438 C 216.285156 248.789062 216.445312 246.683594 216.65625 244.582031 C 216.867188 242.480469 217.128906 240.382812 217.441406 238.296875 C 217.757812 236.207031 218.121094 234.128906 218.539062 232.054688 C 218.953125 229.984375 219.417969 227.925781 219.9375 225.878906 C 220.453125 223.832031 221.019531 221.796875 221.636719 219.777344 C 222.25 217.753906 222.917969 215.75 223.628906 213.761719 C 224.34375 211.777344 225.105469 209.804688 225.917969 207.855469 C 226.726562 205.90625 227.585938 203.976562 228.492188 202.066406 C 229.394531 200.160156 230.347656 198.273438 231.34375 196.414062 C 232.34375 194.550781 233.382812 192.714844 234.472656 190.902344 C 235.558594 189.09375 236.691406 187.308594 237.863281 185.554688 C 239.039062 183.796875 240.253906 182.070312 241.515625 180.375 C 242.773438 178.679688 244.074219 177.015625 245.414062 175.382812 C 246.753906 173.75 248.132812 172.152344 249.550781 170.589844 C 250.972656 169.023438 252.425781 167.492188 253.921875 166 C 255.414062 164.507812 256.941406 163.050781 258.507812 161.632812 C 260.074219 160.214844 261.671875 158.832031 263.304688 157.492188 C 264.9375 156.152344 266.601562 154.851562 268.296875 153.59375 C 269.992188 152.335938 271.71875 151.117188 273.472656 149.945312 C 275.230469 148.769531 277.011719 147.636719 278.824219 146.550781 C 280.632812 145.464844 282.46875 144.421875 284.332031 143.425781 C 286.195312 142.425781 288.078125 141.476562 289.988281 140.570312 C 291.894531 139.664062 293.824219 138.808594 295.777344 137.996094 C 297.726562 137.1875 299.695312 136.425781 301.683594 135.710938 C 303.671875 134.996094 305.675781 134.332031 307.695312 133.714844 C 309.714844 133.097656 311.75 132.53125 313.796875 132.015625 C 315.847656 131.5 317.90625 131.03125 319.976562 130.617188 C 322.046875 130.203125 324.128906 129.835938 326.214844 129.523438 C 328.304688 129.207031 330.398438 128.945312 332.5 128.734375 C 334.601562 128.523438 336.707031 128.363281 338.816406 128.253906 C 340.925781 128.148438 343.039062 128.089844 345.152344 128.085938 Z M 345.203125 152.675781 " fill-opacity="1" fill-rule="nonzero"/></g></g></g><g clip-path="url(#8e29f1823a)"><path fill="#fff505" d="M 324.792969 320.722656 L 388.910156 320.722656 L 388.910156 524.09375 L 324.792969 524.09375 Z M 324.792969 320.722656 " fill-opacity="1" fill-rule="nonzero"/></g><g fill="#f80303" fill-opacity="1"><g transform="translate(39.998277, 545.827876)"><g><path d="M 235 -179.453125 C 254.1875 -158.398438 263.78125 -132.6875 263.78125 -102.3125 C 263.78125 -71.9375 254.1875 -46.289062 235 -25.375 C 215.820312 -4.457031 191.441406 6 161.859375 6 C 134.679688 6 112.300781 -3.726562 94.71875 -23.1875 L 93.921875 -23.1875 L 93.921875 0 L 23.984375 0 L 23.984375 -343.71875 L 94.71875 -343.71875 L 94.71875 -185.453125 C 112.300781 -202.503906 134.679688 -211.03125 161.859375 -211.03125 C 191.441406 -211.03125 215.820312 -200.503906 235 -179.453125 Z M 175.453125 -67.75 C 184.242188 -76.675781 188.640625 -88.195312 188.640625 -102.3125 C 188.640625 -116.4375 184.039062 -128.023438 174.84375 -137.078125 C 165.65625 -146.140625 154.269531 -150.671875 140.6875 -150.671875 C 127.363281 -150.671875 116.101562 -146.140625 106.90625 -137.078125 C 97.71875 -128.023438 93.125 -116.4375 93.125 -102.3125 C 93.125 -88.457031 97.585938 -77 106.515625 -67.9375 C 115.441406 -58.882812 126.832031 -54.359375 140.6875 -54.359375 C 155.070312 -54.359375 166.660156 -58.820312 175.453125 -67.75 Z M 175.453125 -67.75 "/></g></g></g><g fill="#f80303" fill-opacity="1"><g transform="translate(400.806487, 531.893774)"><g><path d="M 236.859375 -181.0625 C 256.191406 -159.988281 265.859375 -134.144531 265.859375 -103.53125 C 265.859375 -72.914062 256.191406 -47 236.859375 -25.78125 C 217.523438 -4.5625 192.953125 6.046875 163.140625 6.046875 C 135.753906 6.046875 113.195312 -2.546875 95.46875 -19.734375 L 95.46875 104.734375 L 24.171875 104.734375 L 24.171875 -206.65625 L 94.671875 -206.65625 L 94.671875 -183.28125 L 95.46875 -183.28125 C 113.195312 -202.882812 135.753906 -212.6875 163.140625 -212.6875 C 192.953125 -212.6875 217.523438 -202.144531 236.859375 -181.0625 Z M 176.234375 -68.46875 C 185.503906 -77.601562 190.140625 -89.285156 190.140625 -103.515625 C 190.140625 -117.753906 185.707031 -129.367188 176.84375 -138.359375 C 167.976562 -147.359375 156.296875 -151.859375 141.796875 -151.859375 C 127.828125 -151.859375 116.34375 -147.289062 107.34375 -138.15625 C 98.351562 -129.03125 93.859375 -117.488281 93.859375 -103.53125 C 93.859375 -89.289062 98.488281 -77.601562 107.75 -68.46875 C 117.019531 -59.34375 128.367188 -54.78125 141.796875 -54.78125 C 155.492188 -54.78125 166.972656 -59.34375 176.234375 -68.46875 Z M 176.234375 -68.46875 "/></g></g></g><g clip-path="url(#59c819970e)"><path fill="#fff505" d="M 356.878906 220.082031 C 355.535156 220.082031 354.195312 220.148438 352.859375 220.28125 C 351.523438 220.414062 350.199219 220.609375 348.882812 220.871094 C 347.566406 221.132812 346.265625 221.457031 344.980469 221.847656 C 343.695312 222.238281 342.433594 222.691406 341.191406 223.203125 C 339.953125 223.71875 338.742188 224.289062 337.558594 224.921875 C 336.375 225.554688 335.222656 226.246094 334.109375 226.992188 C 332.992188 227.738281 331.914062 228.535156 330.878906 229.386719 C 329.839844 230.238281 328.847656 231.136719 327.898438 232.085938 C 326.949219 233.035156 326.046875 234.03125 325.195312 235.066406 C 324.34375 236.105469 323.546875 237.183594 322.800781 238.296875 C 322.054688 239.414062 321.363281 240.5625 320.730469 241.75 C 320.101562 242.933594 319.527344 244.144531 319.011719 245.382812 C 318.5 246.625 318.046875 247.886719 317.65625 249.171875 C 317.269531 250.457031 316.941406 251.757812 316.679688 253.074219 C 316.417969 254.390625 316.222656 255.714844 316.089844 257.050781 C 315.957031 258.386719 315.894531 259.726562 315.894531 261.066406 L 397.863281 261.066406 C 397.863281 259.726562 397.796875 258.386719 397.664062 257.050781 C 397.53125 255.714844 397.335938 254.390625 397.074219 253.074219 C 396.8125 251.757812 396.488281 250.457031 396.097656 249.171875 C 395.707031 247.886719 395.253906 246.625 394.742188 245.382812 C 394.226562 244.144531 393.65625 242.933594 393.023438 241.75 C 392.390625 240.5625 391.699219 239.414062 390.953125 238.296875 C 390.207031 237.183594 389.410156 236.105469 388.558594 235.066406 C 387.707031 234.03125 386.808594 233.035156 385.859375 232.085938 C 384.910156 231.136719 383.914062 230.238281 382.878906 229.386719 C 381.839844 228.535156 380.761719 227.738281 379.648438 226.992188 C 378.53125 226.246094 377.382812 225.554688 376.195312 224.921875 C 375.011719 224.289062 373.800781 223.71875 372.5625 223.203125 C 371.320312 222.691406 370.058594 222.238281 368.773438 221.847656 C 367.488281 221.457031 366.1875 221.132812 364.871094 220.871094 C 363.554688 220.609375 362.230469 220.414062 360.894531 220.28125 C 359.558594 220.148438 358.21875 220.082031 356.878906 220.082031 Z M 356.878906 220.082031 " fill-opacity="1" fill-rule="nonzero"/></g><g clip-path="url(#d95da045ce)"><path fill="#f80303" d="M 356.902344 302.597656 C 358.246094 302.597656 359.585938 302.53125 360.917969 302.398438 C 362.253906 302.265625 363.582031 302.070312 364.898438 301.808594 C 366.214844 301.546875 367.515625 301.222656 368.800781 300.832031 C 370.085938 300.441406 371.347656 299.988281 372.585938 299.476562 C 373.828125 298.960938 375.039062 298.390625 376.222656 297.757812 C 377.40625 297.125 378.554688 296.433594 379.671875 295.6875 C 380.789062 294.941406 381.867188 294.144531 382.902344 293.292969 C 383.941406 292.441406 384.933594 291.539062 385.882812 290.59375 C 386.832031 289.644531 387.734375 288.648438 388.582031 287.613281 C 389.433594 286.574219 390.234375 285.496094 390.980469 284.382812 C 391.726562 283.265625 392.414062 282.113281 393.046875 280.929688 C 393.679688 279.746094 394.253906 278.535156 394.765625 277.296875 C 395.28125 276.054688 395.734375 274.792969 396.121094 273.507812 C 396.511719 272.222656 396.835938 270.921875 397.097656 269.605469 C 397.363281 268.289062 397.558594 266.964844 397.691406 265.628906 C 397.820312 264.292969 397.886719 262.953125 397.886719 261.613281 L 315.917969 261.613281 C 315.917969 262.953125 315.984375 264.292969 316.117188 265.628906 C 316.246094 266.964844 316.445312 268.289062 316.707031 269.605469 C 316.96875 270.921875 317.292969 272.222656 317.683594 273.507812 C 318.074219 274.792969 318.523438 276.054688 319.039062 277.296875 C 319.550781 278.535156 320.125 279.746094 320.757812 280.929688 C 321.390625 282.113281 322.078125 283.265625 322.824219 284.382812 C 323.570312 285.496094 324.371094 286.574219 325.222656 287.613281 C 326.074219 288.648438 326.972656 289.644531 327.921875 290.59375 C 328.871094 291.539062 329.863281 292.441406 330.902344 293.292969 C 331.941406 294.144531 333.015625 294.941406 334.132812 295.6875 C 335.25 296.433594 336.398438 297.125 337.582031 297.757812 C 338.765625 298.390625 339.980469 298.960938 341.21875 299.476562 C 342.457031 299.988281 343.722656 300.441406 345.003906 300.832031 C 346.289062 301.222656 347.589844 301.546875 348.90625 301.808594 C 350.222656 302.070312 351.550781 302.265625 352.886719 302.398438 C 354.222656 302.53125 355.558594 302.597656 356.902344 302.597656 Z M 356.902344 302.597656 " fill-opacity="1" fill-rule="nonzero"/></g><g fill="#000000" fill-opacity="1"><g transform="translate(422.153271, 273.757817)"><g><path d="M 6.46875 0 L 6.46875 -55.34375 L 25.5625 -55.34375 L 25.5625 -47.359375 L 25.78125 -47.359375 C 25.925781 -47.640625 26.160156 -47.992188 26.484375 -48.421875 C 26.804688 -48.859375 27.503906 -49.613281 28.578125 -50.6875 C 29.660156 -51.769531 30.8125 -52.742188 32.03125 -53.609375 C 33.257812 -54.472656 34.84375 -55.242188 36.78125 -55.921875 C 38.726562 -56.609375 40.707031 -56.953125 42.71875 -56.953125 C 44.800781 -56.953125 46.847656 -56.664062 48.859375 -56.09375 C 50.878906 -55.519531 52.359375 -54.945312 53.296875 -54.375 L 54.796875 -53.5 L 46.8125 -37.328125 C 44.445312 -39.335938 41.140625 -40.34375 36.890625 -40.34375 C 34.585938 -40.34375 32.609375 -39.835938 30.953125 -38.828125 C 29.304688 -37.828125 28.140625 -36.609375 27.453125 -35.171875 C 26.765625 -33.734375 26.273438 -32.507812 25.984375 -31.5 C 25.703125 -30.488281 25.5625 -29.695312 25.5625 -29.125 L 25.5625 0 Z M 6.46875 0 "/></g></g></g><g fill="#000000" fill-opacity="1"><g transform="translate(475.012929, 273.757817)"><g><path d="M 10.25 -6.84375 C 5.070312 -12.488281 2.484375 -19.410156 2.484375 -27.609375 C 2.484375 -35.804688 5.070312 -42.742188 10.25 -48.421875 C 15.425781 -54.109375 22.003906 -56.953125 29.984375 -56.953125 C 37.328125 -56.953125 43.367188 -54.648438 48.109375 -50.046875 L 48.109375 -55.34375 L 67.203125 -55.34375 L 67.203125 0 L 48.328125 0 L 48.328125 -6.25 L 48.109375 -6.25 C 43.367188 -1 37.328125 1.625 29.984375 1.625 C 22.003906 1.625 15.425781 -1.195312 10.25 -6.84375 Z M 26.484375 -37 C 24.003906 -34.550781 22.765625 -31.421875 22.765625 -27.609375 C 22.765625 -23.804688 23.945312 -20.695312 26.3125 -18.28125 C 28.6875 -15.875 31.816406 -14.671875 35.703125 -14.671875 C 39.441406 -14.671875 42.515625 -15.890625 44.921875 -18.328125 C 47.335938 -20.773438 48.546875 -23.867188 48.546875 -27.609375 C 48.546875 -31.421875 47.300781 -34.550781 44.8125 -37 C 42.332031 -39.445312 39.296875 -40.671875 35.703125 -40.671875 C 32.035156 -40.671875 28.960938 -39.445312 26.484375 -37 Z M 26.484375 -37 "/></g></g></g><g fill="#000000" fill-opacity="1"><g transform="translate(548.692821, 273.757817)"><g><path d="M 10.25 -6.84375 C 5.070312 -12.488281 2.484375 -19.410156 2.484375 -27.609375 C 2.484375 -35.804688 5.070312 -42.742188 10.25 -48.421875 C 15.425781 -54.109375 22.003906 -56.953125 29.984375 -56.953125 C 37.328125 -56.953125 43.367188 -54.648438 48.109375 -50.046875 L 48.109375 -92.765625 L 67.203125 -92.765625 L 67.203125 0 L 48.328125 0 L 48.328125 -6.25 L 48.109375 -6.25 C 43.367188 -1 37.328125 1.625 29.984375 1.625 C 22.003906 1.625 15.425781 -1.195312 10.25 -6.84375 Z M 26.484375 -37 C 24.003906 -34.550781 22.765625 -31.421875 22.765625 -27.609375 C 22.765625 -23.804688 23.945312 -20.695312 26.3125 -18.28125 C 28.6875 -15.875 31.816406 -14.671875 35.703125 -14.671875 C 39.441406 -14.671875 42.515625 -15.890625 44.921875 -18.328125 C 47.335938 -20.773438 48.546875 -23.867188 48.546875 -27.609375 C 48.546875 -31.421875 47.300781 -34.550781 44.8125 -37 C 42.332031 -39.445312 39.296875 -40.671875 35.703125 -40.671875 C 32.035156 -40.671875 28.960938 -39.445312 26.484375 -37 Z M 26.484375 -37 "/></g></g></g><g fill="#000000" fill-opacity="1"><g transform="translate(622.372703, 273.757817)"><g><path d="M 8.3125 -86.1875 C 10.539062 -88.414062 13.195312 -89.53125 16.28125 -89.53125 C 19.375 -89.53125 22.035156 -88.414062 24.265625 -86.1875 C 26.492188 -83.957031 27.609375 -81.296875 27.609375 -78.203125 C 27.609375 -75.117188 26.492188 -72.457031 24.265625 -70.21875 C 22.035156 -67.988281 19.375 -66.875 16.28125 -66.875 C 13.195312 -66.875 10.539062 -67.988281 8.3125 -70.21875 C 6.082031 -72.457031 4.96875 -75.117188 4.96875 -78.203125 C 4.96875 -81.296875 6.082031 -83.957031 8.3125 -86.1875 Z M 6.46875 -55.34375 L 6.46875 0 L 25.5625 0 L 25.5625 -55.34375 Z M 6.46875 -55.34375 "/></g></g></g><g fill="#000000" fill-opacity="1"><g transform="translate(654.951517, 273.757817)"><g><path d="M 11.703125 -6.578125 C 5.554688 -12.046875 2.484375 -19.054688 2.484375 -27.609375 C 2.484375 -36.171875 5.679688 -43.203125 12.078125 -48.703125 C 18.484375 -54.203125 26.394531 -56.953125 35.8125 -56.953125 C 45.09375 -56.953125 52.914062 -54.179688 59.28125 -48.640625 C 65.644531 -43.109375 68.828125 -36.097656 68.828125 -27.609375 C 68.828125 -19.128906 65.710938 -12.132812 59.484375 -6.625 C 53.265625 -1.125 45.375 1.625 35.8125 1.625 C 25.882812 1.625 17.847656 -1.109375 11.703125 -6.578125 Z M 26.484375 -37 C 24.003906 -34.550781 22.765625 -31.421875 22.765625 -27.609375 C 22.765625 -23.804688 23.945312 -20.695312 26.3125 -18.28125 C 28.6875 -15.875 31.816406 -14.671875 35.703125 -14.671875 C 39.441406 -14.671875 42.515625 -15.890625 44.921875 -18.328125 C 47.335938 -20.773438 48.546875 -23.867188 48.546875 -27.609375 C 48.546875 -31.421875 47.300781 -34.550781 44.8125 -37 C 42.332031 -39.445312 39.296875 -40.671875 35.703125 -40.671875 C 32.035156 -40.671875 28.960938 -39.445312 26.484375 -37 Z M 26.484375 -37 "/></g></g></g><g fill="#000000" fill-opacity="1"><g transform="translate(75.593908, 635.169853)"><g><path d="M 1.703125 -28.5625 L 1.703125 -39.46875 L 15.484375 -48.375 L 20.703125 -48.375 L 20.703125 0 L 9.671875 0 L 9.671875 -33.71875 Z M 1.703125 -28.5625 "/></g></g></g><g fill="#000000" fill-opacity="1"><g transform="translate(103.620477, 635.169853)"><g><path d="M 1.640625 -24.15625 C 1.640625 -32.132812 3.535156 -38.3125 7.328125 -42.6875 C 11.117188 -47.070312 15.789062 -49.265625 21.34375 -49.265625 C 26.894531 -49.265625 31.554688 -47.070312 35.328125 -42.6875 C 39.097656 -38.3125 40.984375 -32.132812 40.984375 -24.15625 C 40.984375 -19.820312 40.457031 -16.007812 39.40625 -12.71875 C 38.351562 -9.4375 36.894531 -6.828125 35.03125 -4.890625 C 33.175781 -2.960938 31.101562 -1.519531 28.8125 -0.5625 C 26.53125 0.394531 24.039062 0.875 21.34375 0.875 C 18.644531 0.875 16.148438 0.394531 13.859375 -0.5625 C 11.578125 -1.519531 9.5 -2.960938 7.625 -4.890625 C 5.75 -6.828125 4.28125 -9.4375 3.21875 -12.71875 C 2.164062 -16.007812 1.640625 -19.820312 1.640625 -24.15625 Z M 12.78125 -24.15625 C 12.78125 -19.039062 13.519531 -15.203125 15 -12.640625 C 16.488281 -10.078125 18.601562 -8.796875 21.34375 -8.796875 C 24.039062 -8.796875 26.128906 -10.078125 27.609375 -12.640625 C 29.097656 -15.203125 29.84375 -19.039062 29.84375 -24.15625 C 29.84375 -29.039062 29.085938 -32.832031 27.578125 -35.53125 C 26.078125 -38.226562 24 -39.578125 21.34375 -39.578125 C 18.6875 -39.578125 16.59375 -38.21875 15.0625 -35.5 C 13.539062 -32.789062 12.78125 -29.007812 12.78125 -24.15625 Z M 12.78125 -24.15625 "/></g></g></g><g fill="#000000" fill-opacity="1"><g transform="translate(150.057033, 635.169853)"><g><path d="M 34.015625 -48.375 L 19.765625 -31.78125 C 20.585938 -32.25 21.738281 -32.484375 23.21875 -32.484375 C 24.9375 -32.484375 26.675781 -32.117188 28.4375 -31.390625 C 30.195312 -30.671875 31.847656 -29.632812 33.390625 -28.28125 C 34.941406 -26.9375 36.203125 -25.148438 37.171875 -22.921875 C 38.148438 -20.703125 38.640625 -18.242188 38.640625 -15.546875 C 38.640625 -12.804688 38.117188 -10.347656 37.078125 -8.171875 C 36.046875 -6.003906 34.660156 -4.285156 32.921875 -3.015625 C 31.179688 -1.742188 29.273438 -0.773438 27.203125 -0.109375 C 25.128906 0.546875 22.960938 0.875 20.703125 0.875 C 15.265625 0.875 10.6875 -0.707031 6.96875 -3.875 C 3.257812 -7.039062 1.40625 -10.929688 1.40625 -15.546875 C 1.40625 -19.453125 1.953125 -22.664062 3.046875 -25.1875 C 4.140625 -27.707031 6.132812 -30.921875 9.03125 -34.828125 L 20.40625 -48.375 Z M 12.84375 -15.546875 C 12.84375 -13.429688 13.523438 -11.675781 14.890625 -10.28125 C 16.265625 -8.894531 18.023438 -8.203125 20.171875 -8.203125 C 22.316406 -8.203125 24.09375 -8.894531 25.5 -10.28125 C 26.914062 -11.675781 27.625 -13.429688 27.625 -15.546875 C 27.625 -17.691406 26.910156 -19.476562 25.484375 -20.90625 C 24.054688 -22.332031 22.285156 -23.046875 20.171875 -23.046875 C 18.140625 -23.046875 16.410156 -22.332031 14.984375 -20.90625 C 13.554688 -19.476562 12.84375 -17.691406 12.84375 -15.546875 Z M 12.84375 -15.546875 "/></g></g></g><g fill="#000000" fill-opacity="1"><g transform="translate(194.265631, 635.169853)"><g><path d="M 10.203125 -12.546875 C 12.078125 -12.546875 13.671875 -11.890625 14.984375 -10.578125 C 16.296875 -9.273438 16.953125 -7.6875 16.953125 -5.8125 C 16.953125 -3.96875 16.296875 -2.390625 14.984375 -1.078125 C 13.671875 0.222656 12.078125 0.875 10.203125 0.875 C 8.367188 0.875 6.796875 0.222656 5.484375 -1.078125 C 4.171875 -2.390625 3.515625 -3.96875 3.515625 -5.8125 C 3.515625 -7.6875 4.171875 -9.273438 5.484375 -10.578125 C 6.796875 -11.890625 8.367188 -12.546875 10.203125 -12.546875 Z M 10.203125 -12.546875 "/></g></g></g><g fill="#000000" fill-opacity="1"><g transform="translate(218.539842, 635.169853)"><g><path d="M 1.640625 -24.15625 C 1.640625 -32.132812 3.535156 -38.3125 7.328125 -42.6875 C 11.117188 -47.070312 15.789062 -49.265625 21.34375 -49.265625 C 26.894531 -49.265625 31.554688 -47.070312 35.328125 -42.6875 C 39.097656 -38.3125 40.984375 -32.132812 40.984375 -24.15625 C 40.984375 -19.820312 40.457031 -16.007812 39.40625 -12.71875 C 38.351562 -9.4375 36.894531 -6.828125 35.03125 -4.890625 C 33.175781 -2.960938 31.101562 -1.519531 28.8125 -0.5625 C 26.53125 0.394531 24.039062 0.875 21.34375 0.875 C 18.644531 0.875 16.148438 0.394531 13.859375 -0.5625 C 11.578125 -1.519531 9.5 -2.960938 7.625 -4.890625 C 5.75 -6.828125 4.28125 -9.4375 3.21875 -12.71875 C 2.164062 -16.007812 1.640625 -19.820312 1.640625 -24.15625 Z M 12.78125 -24.15625 C 12.78125 -19.039062 13.519531 -15.203125 15 -12.640625 C 16.488281 -10.078125 18.601562 -8.796875 21.34375 -8.796875 C 24.039062 -8.796875 26.128906 -10.078125 27.609375 -12.640625 C 29.097656 -15.203125 29.84375 -19.039062 29.84375 -24.15625 C 29.84375 -29.039062 29.085938 -32.832031 27.578125 -35.53125 C 26.078125 -38.226562 24 -39.578125 21.34375 -39.578125 C 18.6875 -39.578125 16.59375 -38.21875 15.0625 -35.5 C 13.539062 -32.789062 12.78125 -29.007812 12.78125 -24.15625 Z M 12.78125 -24.15625 "/></g></g></g><g fill="#000000" fill-opacity="1"><g transform="translate(264.976394, 635.169853)"><g><path d="M 1.640625 -24.15625 C 1.640625 -32.132812 3.535156 -38.3125 7.328125 -42.6875 C 11.117188 -47.070312 15.789062 -49.265625 21.34375 -49.265625 C 26.894531 -49.265625 31.554688 -47.070312 35.328125 -42.6875 C 39.097656 -38.3125 40.984375 -32.132812 40.984375 -24.15625 C 40.984375 -19.820312 40.457031 -16.007812 39.40625 -12.71875 C 38.351562 -9.4375 36.894531 -6.828125 35.03125 -4.890625 C 33.175781 -2.960938 31.101562 -1.519531 28.8125 -0.5625 C 26.53125 0.394531 24.039062 0.875 21.34375 0.875 C 18.644531 0.875 16.148438 0.394531 13.859375 -0.5625 C 11.578125 -1.519531 9.5 -2.960938 7.625 -4.890625 C 5.75 -6.828125 4.28125 -9.4375 3.21875 -12.71875 C 2.164062 -16.007812 1.640625 -19.820312 1.640625 -24.15625 Z M 12.78125 -24.15625 C 12.78125 -19.039062 13.519531 -15.203125 15 -12.640625 C 16.488281 -10.078125 18.601562 -8.796875 21.34375 -8.796875 C 24.039062 -8.796875 26.128906 -10.078125 27.609375 -12.640625 C 29.097656 -15.203125 29.84375 -19.039062 29.84375 -24.15625 C 29.84375 -29.039062 29.085938 -32.832031 27.578125 -35.53125 C 26.078125 -38.226562 24 -39.578125 21.34375 -39.578125 C 18.6875 -39.578125 16.59375 -38.21875 15.0625 -35.5 C 13.539062 -32.789062 12.78125 -29.007812 12.78125 -24.15625 Z M 12.78125 -24.15625 "/></g></g></g><g fill="#000000" fill-opacity="1"><g transform="translate(311.412946, 635.169853)"><g><path d="M 5.28125 -30.078125 L 5.28125 -36.46875 C 5.320312 -40.96875 6.375 -44.566406 8.4375 -47.265625 C 10.507812 -49.960938 13.382812 -51.3125 17.0625 -51.3125 C 18.625 -51.3125 20.117188 -51.085938 21.546875 -50.640625 C 22.972656 -50.191406 24 -49.734375 24.625 -49.265625 L 25.625 -48.609375 L 21.984375 -41.28125 C 21.046875 -41.832031 20.007812 -42.109375 18.875 -42.109375 C 17.59375 -42.109375 16.734375 -41.664062 16.296875 -40.78125 C 15.867188 -39.90625 15.65625 -38.375 15.65625 -36.1875 L 15.65625 -30.078125 L 22.578125 -30.078125 L 22.578125 -22.171875 L 15.65625 -22.171875 L 15.65625 0 L 5.28125 0 L 5.28125 -22.171875 L 0.9375 -22.171875 L 0.9375 -30.078125 Z M 5.28125 -30.078125 "/></g></g></g><g fill="#000000" fill-opacity="1"><g transform="translate(337.211549, 635.169853)"><g><path d="M 3.515625 0 L 3.515625 -30.078125 L 13.890625 -30.078125 L 13.890625 -26.921875 L 14.015625 -26.921875 C 16.710938 -29.617188 19.585938 -30.96875 22.640625 -30.96875 C 24.828125 -30.96875 26.878906 -30.515625 28.796875 -29.609375 C 30.710938 -28.710938 32.15625 -27.328125 33.125 -25.453125 C 36.175781 -29.128906 39.5 -30.96875 43.09375 -30.96875 C 46.300781 -30.96875 49.054688 -30.066406 51.359375 -28.265625 C 53.671875 -26.460938 54.828125 -23.648438 54.828125 -19.828125 L 54.828125 0 L 44.453125 0 L 44.453125 -17 C 44.453125 -18.601562 44.007812 -19.941406 43.125 -21.015625 C 42.25 -22.097656 40.929688 -22.640625 39.171875 -22.640625 C 37.648438 -22.640625 36.488281 -22.175781 35.6875 -21.25 C 34.882812 -20.332031 34.441406 -19.226562 34.359375 -17.9375 L 34.359375 0 L 23.984375 0 L 23.984375 -17 C 23.984375 -18.601562 23.539062 -19.941406 22.65625 -21.015625 C 21.78125 -22.097656 20.460938 -22.640625 18.703125 -22.640625 C 17.097656 -22.640625 15.894531 -22.140625 15.09375 -21.140625 C 14.289062 -20.140625 13.890625 -18.957031 13.890625 -17.59375 L 13.890625 0 Z M 3.515625 0 "/></g></g></g></svg>