<svg xmlns="http://www.w3.org/2000/svg" xmlns:xlink="http://www.w3.org/1999/xlink" width="1024" zoomAndPan="magnify" viewBox="0 0 768 576" height="768" preserveAspectRatio="xMidYMid meet" version="1.0"><defs><g/><clipPath id="66bbccc45c"><path d="M 234.039062 53.199219 L 331.453125 53.199219 L 331.453125 150.617188 L 234.039062 150.617188 Z M 234.039062 53.199219 " clip-rule="nonzero"/></clipPath><clipPath id="a4166d04b8"><path d="M 189 12 L 329 12 L 329 152 L 189 152 Z M 189 12 " clip-rule="nonzero"/></clipPath><clipPath id="1ef4dba555"><path d="M 150.761719 112.535156 L 290.34375 -27.042969 L 342.914062 25.523438 L 203.332031 165.105469 Z M 150.761719 112.535156 " clip-rule="nonzero"/></clipPath><clipPath id="6cc5c1ef52"><path d="M 150.761719 112.535156 L 290.34375 -27.042969 L 342.914062 25.523438 L 203.332031 165.105469 Z M 150.761719 112.535156 " clip-rule="nonzero"/></clipPath><clipPath id="27e39e3e2a"><path d="M 306.851562 219.820312 L 375.933594 219.820312 L 375.933594 438.929688 L 306.851562 438.929688 Z M 306.851562 219.820312 " clip-rule="nonzero"/></clipPath><clipPath id="f880d039ab"><path d="M 297.261719 111.113281 L 385.707031 111.113281 L 385.707031 155.976562 L 297.261719 155.976562 Z M 297.261719 111.113281 " clip-rule="nonzero"/></clipPath><clipPath id="592222dc61"><path d="M 297.160156 156 L 385.605469 156 L 385.605469 200.566406 L 297.160156 200.566406 Z M 297.160156 156 " clip-rule="nonzero"/></clipPath></defs><g clip-path="url(#66bbccc45c)"><path fill="#f80303" d="M 234.039062 150.617188 C 234.039062 137.773438 236.566406 125.058594 241.480469 113.191406 C 246.398438 101.324219 253.601562 90.546875 262.683594 81.464844 C 271.761719 72.382812 282.542969 65.179688 294.410156 60.265625 C 306.273438 55.347656 318.992188 52.820312 331.835938 52.820312 L 331.835938 85.15625 C 323.238281 85.15625 314.726562 86.847656 306.785156 90.136719 C 298.84375 93.429688 291.625 98.25 285.546875 104.328125 C 279.46875 110.40625 274.644531 117.625 271.355469 125.566406 C 268.066406 133.507812 266.375 142.019531 266.375 150.617188 Z M 234.039062 150.617188 " fill-opacity="1" fill-rule="nonzero"/></g><g clip-path="url(#a4166d04b8)"><g clip-path="url(#1ef4dba555)"><g clip-path="url(#6cc5c1ef52)"><path fill="#f80303" d="M 328.839844 38.761719 C 326.996094 38.765625 325.15625 38.816406 323.3125 38.910156 C 321.472656 39.003906 319.632812 39.140625 317.800781 39.328125 C 315.964844 39.511719 314.136719 39.738281 312.3125 40.011719 C 310.488281 40.289062 308.675781 40.605469 306.867188 40.96875 C 305.058594 41.332031 303.261719 41.738281 301.472656 42.1875 C 299.683594 42.636719 297.910156 43.132812 296.144531 43.671875 C 294.382812 44.207031 292.632812 44.789062 290.898438 45.410156 C 289.164062 46.035156 287.441406 46.699219 285.742188 47.40625 C 284.039062 48.113281 282.355469 48.863281 280.6875 49.652344 C 279.023438 50.441406 277.375 51.273438 275.75 52.144531 C 274.125 53.015625 272.523438 53.925781 270.941406 54.875 C 269.359375 55.820312 267.804688 56.808594 266.273438 57.835938 C 264.738281 58.859375 263.234375 59.921875 261.753906 61.019531 C 260.273438 62.121094 258.820312 63.253906 257.394531 64.421875 C 255.96875 65.59375 254.574219 66.796875 253.207031 68.035156 C 251.839844 69.273438 250.507812 70.546875 249.203125 71.847656 C 247.898438 73.152344 246.628906 74.488281 245.390625 75.855469 C 244.152344 77.21875 242.949219 78.617188 241.777344 80.039062 C 240.605469 81.464844 239.472656 82.917969 238.375 84.398438 C 237.273438 85.878906 236.214844 87.386719 235.1875 88.917969 C 234.164062 90.449219 233.175781 92.007812 232.226562 93.589844 C 231.277344 95.167969 230.367188 96.773438 229.496094 98.398438 C 228.628906 100.023438 227.796875 101.667969 227.007812 103.335938 C 226.21875 105 225.46875 106.683594 224.761719 108.386719 C 224.054688 110.089844 223.386719 111.808594 222.765625 113.542969 C 222.140625 115.277344 221.5625 117.027344 221.023438 118.792969 C 220.484375 120.554688 219.992188 122.332031 219.542969 124.121094 C 219.089844 125.90625 218.683594 127.703125 218.320312 129.511719 C 217.957031 131.320312 217.640625 133.136719 217.367188 134.960938 C 217.09375 136.78125 216.863281 138.613281 216.679688 140.445312 C 216.496094 142.28125 216.355469 144.117188 216.261719 145.960938 C 216.167969 147.800781 216.121094 149.644531 216.117188 151.488281 L 189.636719 151.414062 C 189.644531 149.136719 189.703125 146.863281 189.820312 144.589844 C 189.9375 142.316406 190.109375 140.046875 190.335938 137.785156 C 190.566406 135.519531 190.847656 133.261719 191.1875 131.011719 C 191.523438 128.761719 191.917969 126.519531 192.367188 124.289062 C 192.8125 122.058594 193.316406 119.839844 193.871094 117.632812 C 194.429688 115.425781 195.039062 113.234375 195.703125 111.058594 C 196.367188 108.878906 197.082031 106.722656 197.851562 104.578125 C 198.621094 102.4375 199.445312 100.316406 200.316406 98.214844 C 201.191406 96.113281 202.117188 94.035156 203.089844 91.976562 C 204.066406 89.921875 205.089844 87.890625 206.164062 85.882812 C 207.238281 83.878906 208.363281 81.898438 209.535156 79.949219 C 210.707031 77.996094 211.925781 76.074219 213.191406 74.183594 C 214.457031 72.292969 215.765625 70.433594 217.121094 68.605469 C 218.480469 66.777344 219.878906 64.984375 221.324219 63.226562 C 222.769531 61.46875 224.253906 59.746094 225.78125 58.058594 C 227.3125 56.375 228.878906 54.726562 230.488281 53.117188 C 232.097656 51.507812 233.746094 49.9375 235.433594 48.410156 C 237.117188 46.882812 238.839844 45.394531 240.597656 43.953125 C 242.359375 42.507812 244.152344 41.105469 245.980469 39.75 C 247.804688 38.394531 249.664062 37.082031 251.558594 35.816406 C 253.449219 34.550781 255.371094 33.332031 257.320312 32.160156 C 259.273438 30.992188 261.25 29.867188 263.257812 28.792969 C 265.261719 27.71875 267.292969 26.695312 269.351562 25.71875 C 271.40625 24.742188 273.484375 23.820312 275.585938 22.945312 C 277.6875 22.070312 279.808594 21.25 281.953125 20.480469 C 284.09375 19.710938 286.253906 18.996094 288.429688 18.332031 C 290.605469 17.667969 292.796875 17.058594 295.003906 16.5 C 297.210938 15.945312 299.429688 15.441406 301.660156 14.992188 C 303.894531 14.546875 306.132812 14.152344 308.382812 13.816406 C 310.632812 13.476562 312.890625 13.191406 315.15625 12.964844 C 317.421875 12.738281 319.6875 12.566406 321.960938 12.449219 C 324.234375 12.332031 326.507812 12.269531 328.785156 12.265625 Z M 328.839844 38.761719 " fill-opacity="1" fill-rule="nonzero"/></g></g></g><g clip-path="url(#27e39e3e2a)"><path fill="#fff505" d="M 306.851562 219.820312 L 375.933594 219.820312 L 375.933594 438.945312 L 306.851562 438.945312 Z M 306.851562 219.820312 " fill-opacity="1" fill-rule="nonzero"/></g><g fill="#f80303" fill-opacity="1"><g transform="translate(0, 462.360699)"><g><path d="M 253.203125 -193.34375 C 273.878906 -170.664062 284.21875 -142.960938 284.21875 -110.234375 C 284.21875 -77.515625 273.878906 -49.882812 253.203125 -27.34375 C 232.535156 -4.8125 206.269531 6.453125 174.40625 6.453125 C 145.125 6.453125 121.007812 -4.019531 102.0625 -24.96875 L 101.203125 -24.96875 L 101.203125 0 L 25.84375 0 L 25.84375 -370.34375 L 102.0625 -370.34375 L 102.0625 -199.8125 C 121.007812 -218.1875 145.125 -227.375 174.40625 -227.375 C 206.269531 -227.375 232.535156 -216.03125 253.203125 -193.34375 Z M 189.03125 -72.984375 C 198.507812 -82.609375 203.25 -95.023438 203.25 -110.234375 C 203.25 -125.453125 198.296875 -137.941406 188.390625 -147.703125 C 178.492188 -157.460938 166.222656 -162.34375 151.578125 -162.34375 C 137.222656 -162.34375 125.09375 -157.460938 115.1875 -147.703125 C 105.28125 -137.941406 100.328125 -125.453125 100.328125 -110.234375 C 100.328125 -95.304688 105.132812 -82.960938 114.75 -73.203125 C 124.375 -63.441406 136.648438 -58.5625 151.578125 -58.5625 C 167.078125 -58.5625 179.5625 -63.367188 189.03125 -72.984375 Z M 189.03125 -72.984375 "/></g></g></g><g fill="#f80303" fill-opacity="1"><g transform="translate(388.751057, 447.347444)"><g><path d="M 255.203125 -195.09375 C 276.035156 -172.382812 286.453125 -144.535156 286.453125 -111.546875 C 286.453125 -78.554688 276.035156 -50.628906 255.203125 -27.765625 C 234.367188 -4.910156 207.894531 6.515625 175.78125 6.515625 C 146.269531 6.515625 121.960938 -2.742188 102.859375 -21.265625 L 102.859375 112.84375 L 26.046875 112.84375 L 26.046875 -222.65625 L 102 -222.65625 L 102 -197.484375 L 102.859375 -197.484375 C 121.960938 -218.609375 146.269531 -229.171875 175.78125 -229.171875 C 207.894531 -229.171875 234.367188 -217.8125 255.203125 -195.09375 Z M 189.890625 -73.78125 C 199.867188 -83.625 204.859375 -96.210938 204.859375 -111.546875 C 204.859375 -126.878906 200.082031 -139.390625 190.53125 -149.078125 C 180.988281 -158.773438 168.40625 -163.625 152.78125 -163.625 C 137.726562 -163.625 125.351562 -158.703125 115.65625 -148.859375 C 105.96875 -139.023438 101.125 -126.585938 101.125 -111.546875 C 101.125 -96.210938 106.113281 -83.625 116.09375 -73.78125 C 126.082031 -63.945312 138.3125 -59.03125 152.78125 -59.03125 C 167.539062 -59.03125 179.910156 -63.945312 189.890625 -73.78125 Z M 189.890625 -73.78125 "/></g></g></g><g clip-path="url(#f880d039ab)"><path fill="#fff505" d="M 341.417969 111.390625 C 339.972656 111.390625 338.53125 111.460938 337.089844 111.601562 C 335.652344 111.742188 334.222656 111.957031 332.804688 112.238281 C 331.386719 112.519531 329.984375 112.871094 328.601562 113.289062 C 327.21875 113.710938 325.855469 114.195312 324.519531 114.75 C 323.183594 115.304688 321.878906 115.921875 320.605469 116.601562 C 319.328125 117.285156 318.089844 118.027344 316.886719 118.832031 C 315.683594 119.632812 314.523438 120.496094 313.40625 121.414062 C 312.289062 122.332031 311.21875 123.300781 310.195312 124.324219 C 309.171875 125.34375 308.203125 126.414062 307.285156 127.535156 C 306.367188 128.652344 305.507812 129.8125 304.703125 131.015625 C 303.898438 132.21875 303.15625 133.457031 302.476562 134.730469 C 301.792969 136.007812 301.175781 137.3125 300.621094 138.648438 C 300.070312 139.984375 299.582031 141.34375 299.164062 142.730469 C 298.742188 144.113281 298.390625 145.515625 298.109375 146.933594 C 297.828125 148.351562 297.617188 149.78125 297.472656 151.21875 C 297.332031 152.660156 297.261719 154.101562 297.261719 155.546875 L 385.578125 155.546875 C 385.578125 154.101562 385.507812 152.660156 385.367188 151.21875 C 385.222656 149.78125 385.011719 148.351562 384.730469 146.933594 C 384.449219 145.515625 384.097656 144.113281 383.675781 142.730469 C 383.257812 141.34375 382.769531 139.984375 382.21875 138.648438 C 381.664062 137.3125 381.046875 136.007812 380.363281 134.730469 C 379.683594 133.457031 378.941406 132.21875 378.136719 131.015625 C 377.332031 129.8125 376.472656 128.652344 375.554688 127.535156 C 374.636719 126.414062 373.667969 125.34375 372.644531 124.324219 C 371.621094 123.300781 370.550781 122.332031 369.433594 121.414062 C 368.316406 120.496094 367.15625 119.632812 365.953125 118.832031 C 364.75 118.027344 363.511719 117.285156 362.234375 116.601562 C 360.960938 115.921875 359.65625 115.304688 358.320312 114.75 C 356.980469 114.195312 355.621094 113.710938 354.238281 113.289062 C 352.855469 112.871094 351.453125 112.519531 350.035156 112.238281 C 348.617188 111.957031 347.1875 111.742188 345.75 111.601562 C 344.308594 111.460938 342.867188 111.390625 341.417969 111.390625 Z M 341.417969 111.390625 " fill-opacity="1" fill-rule="nonzero"/></g><g clip-path="url(#592222dc61)"><path fill="#f80303" d="M 341.445312 200.292969 C 342.894531 200.292969 344.335938 200.21875 345.777344 200.078125 C 347.214844 199.9375 348.644531 199.726562 350.0625 199.441406 C 351.480469 199.160156 352.882812 198.808594 354.265625 198.390625 C 355.648438 197.96875 357.007812 197.484375 358.347656 196.929688 C 359.683594 196.375 360.988281 195.757812 362.261719 195.078125 C 363.539062 194.394531 364.777344 193.652344 365.980469 192.847656 C 367.183594 192.046875 368.34375 191.183594 369.460938 190.269531 C 370.578125 189.351562 371.648438 188.378906 372.671875 187.359375 C 373.695312 186.335938 374.664062 185.265625 375.582031 184.148438 C 376.5 183.027344 377.359375 181.867188 378.164062 180.667969 C 378.96875 179.464844 379.710938 178.226562 380.390625 176.949219 C 381.074219 175.671875 381.691406 174.367188 382.242188 173.03125 C 382.796875 171.695312 383.285156 170.335938 383.703125 168.953125 C 384.125 167.566406 384.476562 166.167969 384.757812 164.75 C 385.039062 163.328125 385.25 161.902344 385.394531 160.460938 C 385.535156 159.023438 385.605469 157.578125 385.605469 156.132812 L 297.289062 156.132812 C 297.289062 157.578125 297.359375 159.023438 297.5 160.460938 C 297.644531 161.902344 297.855469 163.328125 298.136719 164.75 C 298.417969 166.167969 298.769531 167.566406 299.191406 168.953125 C 299.609375 170.335938 300.097656 171.695312 300.648438 173.03125 C 301.203125 174.367188 301.820312 175.671875 302.503906 176.949219 C 303.183594 178.226562 303.925781 179.464844 304.730469 180.667969 C 305.535156 181.867188 306.394531 183.027344 307.3125 184.148438 C 308.230469 185.265625 309.199219 186.335938 310.222656 187.359375 C 311.246094 188.378906 312.316406 189.351562 313.433594 190.269531 C 314.550781 191.183594 315.710938 192.046875 316.914062 192.847656 C 318.117188 193.652344 319.355469 194.394531 320.632812 195.078125 C 321.90625 195.757812 323.210938 196.375 324.546875 196.929688 C 325.882812 197.484375 327.246094 197.96875 328.628906 198.390625 C 330.011719 198.808594 331.414062 199.160156 332.832031 199.441406 C 334.25 199.726562 335.679688 199.9375 337.117188 200.078125 C 338.558594 200.21875 340 200.292969 341.445312 200.292969 Z M 341.445312 200.292969 " fill-opacity="1" fill-rule="nonzero"/></g><g fill="#000000" fill-opacity="1"><g transform="translate(411.751048, 169.220095)"><g><path d="M 6.96875 0 L 6.96875 -59.625 L 27.546875 -59.625 L 27.546875 -51.03125 L 27.78125 -51.03125 C 27.9375 -51.332031 28.1875 -51.71875 28.53125 -52.1875 C 28.882812 -52.65625 29.640625 -53.46875 30.796875 -54.625 C 31.960938 -55.789062 33.203125 -56.835938 34.515625 -57.765625 C 35.835938 -58.691406 37.546875 -59.523438 39.640625 -60.265625 C 41.734375 -61.003906 43.863281 -61.375 46.03125 -61.375 C 48.28125 -61.375 50.488281 -61.0625 52.65625 -60.4375 C 54.820312 -59.820312 56.410156 -59.203125 57.421875 -58.578125 L 59.046875 -57.65625 L 50.453125 -40.21875 C 47.890625 -42.382812 44.320312 -43.46875 39.75 -43.46875 C 37.269531 -43.46875 35.140625 -42.925781 33.359375 -41.84375 C 31.578125 -40.757812 30.316406 -39.441406 29.578125 -37.890625 C 28.847656 -36.335938 28.328125 -35.019531 28.015625 -33.9375 C 27.703125 -32.851562 27.546875 -32.003906 27.546875 -31.390625 L 27.546875 0 Z M 6.96875 0 "/></g></g></g><g fill="#000000" fill-opacity="1"><g transform="translate(468.704436, 169.220095)"><g><path d="M 11.03125 -7.375 C 5.457031 -13.457031 2.671875 -20.914062 2.671875 -29.75 C 2.671875 -38.582031 5.457031 -46.0625 11.03125 -52.1875 C 16.613281 -58.3125 23.707031 -61.375 32.3125 -61.375 C 40.21875 -61.375 46.726562 -58.894531 51.84375 -53.9375 L 51.84375 -59.625 L 72.40625 -59.625 L 72.40625 0 L 52.078125 0 L 52.078125 -6.734375 L 51.84375 -6.734375 C 46.726562 -1.078125 40.21875 1.75 32.3125 1.75 C 23.707031 1.75 16.613281 -1.289062 11.03125 -7.375 Z M 28.53125 -39.875 C 25.863281 -37.238281 24.53125 -33.863281 24.53125 -29.75 C 24.53125 -25.644531 25.804688 -22.296875 28.359375 -19.703125 C 30.921875 -17.109375 34.289062 -15.8125 38.46875 -15.8125 C 42.5 -15.8125 45.8125 -17.128906 48.40625 -19.765625 C 51.007812 -22.398438 52.3125 -25.726562 52.3125 -29.75 C 52.3125 -33.863281 50.972656 -37.238281 48.296875 -39.875 C 45.617188 -42.507812 42.34375 -43.828125 38.46875 -43.828125 C 34.519531 -43.828125 31.207031 -42.507812 28.53125 -39.875 Z M 28.53125 -39.875 "/></g></g></g><g fill="#000000" fill-opacity="1"><g transform="translate(548.090487, 169.220095)"><g><path d="M 11.03125 -7.375 C 5.457031 -13.457031 2.671875 -20.914062 2.671875 -29.75 C 2.671875 -38.582031 5.457031 -46.0625 11.03125 -52.1875 C 16.613281 -58.3125 23.707031 -61.375 32.3125 -61.375 C 40.21875 -61.375 46.726562 -58.894531 51.84375 -53.9375 L 51.84375 -99.96875 L 72.40625 -99.96875 L 72.40625 0 L 52.078125 0 L 52.078125 -6.734375 L 51.84375 -6.734375 C 46.726562 -1.078125 40.21875 1.75 32.3125 1.75 C 23.707031 1.75 16.613281 -1.289062 11.03125 -7.375 Z M 28.53125 -39.875 C 25.863281 -37.238281 24.53125 -33.863281 24.53125 -29.75 C 24.53125 -25.644531 25.804688 -22.296875 28.359375 -19.703125 C 30.921875 -17.109375 34.289062 -15.8125 38.46875 -15.8125 C 42.5 -15.8125 45.8125 -17.128906 48.40625 -19.765625 C 51.007812 -22.398438 52.3125 -25.726562 52.3125 -29.75 C 52.3125 -33.863281 50.972656 -37.238281 48.296875 -39.875 C 45.617188 -42.507812 42.34375 -43.828125 38.46875 -43.828125 C 34.519531 -43.828125 31.207031 -42.507812 28.53125 -39.875 Z M 28.53125 -39.875 "/></g></g></g><g fill="#000000" fill-opacity="1"><g transform="translate(627.476527, 169.220095)"><g><path d="M 8.9375 -92.859375 C 11.34375 -95.265625 14.210938 -96.46875 17.546875 -96.46875 C 20.878906 -96.46875 23.742188 -95.265625 26.140625 -92.859375 C 28.546875 -90.460938 29.75 -87.597656 29.75 -84.265625 C 29.75 -80.929688 28.546875 -78.0625 26.140625 -75.65625 C 23.742188 -73.257812 20.878906 -72.0625 17.546875 -72.0625 C 14.210938 -72.0625 11.34375 -73.257812 8.9375 -75.65625 C 6.539062 -78.0625 5.34375 -80.929688 5.34375 -84.265625 C 5.34375 -87.597656 6.539062 -90.460938 8.9375 -92.859375 Z M 6.96875 -59.625 L 6.96875 0 L 27.546875 0 L 27.546875 -59.625 Z M 6.96875 -59.625 "/></g></g></g><g fill="#000000" fill-opacity="1"><g transform="translate(662.578416, 169.220095)"><g><path d="M 12.609375 -7.078125 C 5.984375 -12.972656 2.671875 -20.53125 2.671875 -29.75 C 2.671875 -38.976562 6.117188 -46.554688 13.015625 -52.484375 C 19.910156 -58.410156 28.4375 -61.375 38.59375 -61.375 C 48.582031 -61.375 57.003906 -58.390625 63.859375 -52.421875 C 70.722656 -46.453125 74.15625 -38.894531 74.15625 -29.75 C 74.15625 -20.613281 70.800781 -13.078125 64.09375 -7.140625 C 57.394531 -1.210938 48.894531 1.75 38.59375 1.75 C 27.894531 1.75 19.234375 -1.191406 12.609375 -7.078125 Z M 28.53125 -39.875 C 25.863281 -37.238281 24.53125 -33.863281 24.53125 -29.75 C 24.53125 -25.644531 25.804688 -22.296875 28.359375 -19.703125 C 30.921875 -17.109375 34.289062 -15.8125 38.46875 -15.8125 C 42.5 -15.8125 45.8125 -17.128906 48.40625 -19.765625 C 51.007812 -22.398438 52.3125 -25.726562 52.3125 -29.75 C 52.3125 -33.863281 50.972656 -37.238281 48.296875 -39.875 C 45.617188 -42.507812 42.34375 -43.828125 38.46875 -43.828125 C 34.519531 -43.828125 31.207031 -42.507812 28.53125 -39.875 Z M 28.53125 -39.875 "/></g></g></g><g fill="#000000" fill-opacity="1"><g transform="translate(38.352341, 558.621741)"><g><path d="M 1.828125 -30.765625 L 1.828125 -42.53125 L 16.6875 -52.125 L 22.3125 -52.125 L 22.3125 0 L 10.421875 0 L 10.421875 -36.328125 Z M 1.828125 -30.765625 "/></g></g></g><g fill="#000000" fill-opacity="1"><g transform="translate(68.549437, 558.621741)"><g><path d="M 1.765625 -26.03125 C 1.765625 -34.625 3.804688 -41.28125 7.890625 -46 C 11.984375 -50.71875 17.019531 -53.078125 23 -53.078125 C 28.976562 -53.078125 34 -50.71875 38.0625 -46 C 42.132812 -41.28125 44.171875 -34.625 44.171875 -26.03125 C 44.171875 -21.351562 43.597656 -17.242188 42.453125 -13.703125 C 41.316406 -10.171875 39.75 -7.359375 37.75 -5.265625 C 35.75 -3.179688 33.515625 -1.625 31.046875 -0.59375 C 28.585938 0.4375 25.90625 0.953125 23 0.953125 C 20.09375 0.953125 17.40625 0.4375 14.9375 -0.59375 C 12.476562 -1.625 10.238281 -3.179688 8.21875 -5.265625 C 6.195312 -7.359375 4.613281 -10.171875 3.46875 -13.703125 C 2.332031 -17.242188 1.765625 -21.351562 1.765625 -26.03125 Z M 13.78125 -26.03125 C 13.78125 -20.507812 14.578125 -16.367188 16.171875 -13.609375 C 17.773438 -10.859375 20.050781 -9.484375 23 -9.484375 C 25.90625 -9.484375 28.15625 -10.859375 29.75 -13.609375 C 31.351562 -16.367188 32.15625 -20.507812 32.15625 -26.03125 C 32.15625 -31.300781 31.34375 -35.390625 29.71875 -38.296875 C 28.101562 -41.203125 25.863281 -42.65625 23 -42.65625 C 20.132812 -42.65625 17.878906 -41.191406 16.234375 -38.265625 C 14.597656 -35.335938 13.78125 -31.257812 13.78125 -26.03125 Z M 13.78125 -26.03125 "/></g></g></g><g fill="#000000" fill-opacity="1"><g transform="translate(118.582289, 558.621741)"><g><path d="M 36.65625 -52.125 L 21.296875 -34.25 C 22.179688 -34.75 23.421875 -35 25.015625 -35 C 26.867188 -35 28.742188 -34.609375 30.640625 -33.828125 C 32.535156 -33.054688 34.316406 -31.941406 35.984375 -30.484375 C 37.648438 -29.035156 39.007812 -27.109375 40.0625 -24.703125 C 41.113281 -22.304688 41.640625 -19.65625 41.640625 -16.75 C 41.640625 -13.800781 41.082031 -11.15625 39.96875 -8.8125 C 38.851562 -6.476562 37.359375 -4.625 35.484375 -3.25 C 33.609375 -1.882812 31.550781 -0.84375 29.3125 -0.125 C 27.082031 0.59375 24.75 0.953125 22.3125 0.953125 C 16.445312 0.953125 11.515625 -0.75 7.515625 -4.15625 C 3.515625 -7.570312 1.515625 -11.769531 1.515625 -16.75 C 1.515625 -20.957031 2.101562 -24.421875 3.28125 -27.140625 C 4.46875 -29.859375 6.617188 -33.320312 9.734375 -37.53125 L 21.984375 -52.125 Z M 13.84375 -16.75 C 13.84375 -14.46875 14.578125 -12.578125 16.046875 -11.078125 C 17.523438 -9.585938 19.421875 -8.84375 21.734375 -8.84375 C 24.054688 -8.84375 25.972656 -9.585938 27.484375 -11.078125 C 29.003906 -12.578125 29.765625 -14.46875 29.765625 -16.75 C 29.765625 -19.0625 28.992188 -20.984375 27.453125 -22.515625 C 25.921875 -24.054688 24.015625 -24.828125 21.734375 -24.828125 C 19.546875 -24.828125 17.679688 -24.054688 16.140625 -22.515625 C 14.609375 -20.984375 13.84375 -19.0625 13.84375 -16.75 Z M 13.84375 -16.75 "/></g></g></g><g fill="#000000" fill-opacity="1"><g transform="translate(166.214637, 558.621741)"><g><path d="M 11 -13.515625 C 13.019531 -13.515625 14.734375 -12.804688 16.140625 -11.390625 C 17.554688 -9.984375 18.265625 -8.269531 18.265625 -6.25 C 18.265625 -4.269531 17.554688 -2.570312 16.140625 -1.15625 C 14.734375 0.25 13.019531 0.953125 11 0.953125 C 9.019531 0.953125 7.320312 0.25 5.90625 -1.15625 C 4.5 -2.570312 3.796875 -4.269531 3.796875 -6.25 C 3.796875 -8.269531 4.5 -9.984375 5.90625 -11.390625 C 7.320312 -12.804688 9.019531 -13.515625 11 -13.515625 Z M 11 -13.515625 "/></g></g></g><g fill="#000000" fill-opacity="1"><g transform="translate(192.368772, 558.621741)"><g><path d="M 1.765625 -26.03125 C 1.765625 -34.625 3.804688 -41.28125 7.890625 -46 C 11.984375 -50.71875 17.019531 -53.078125 23 -53.078125 C 28.976562 -53.078125 34 -50.71875 38.0625 -46 C 42.132812 -41.28125 44.171875 -34.625 44.171875 -26.03125 C 44.171875 -21.351562 43.597656 -17.242188 42.453125 -13.703125 C 41.316406 -10.171875 39.75 -7.359375 37.75 -5.265625 C 35.75 -3.179688 33.515625 -1.625 31.046875 -0.59375 C 28.585938 0.4375 25.90625 0.953125 23 0.953125 C 20.09375 0.953125 17.40625 0.4375 14.9375 -0.59375 C 12.476562 -1.625 10.238281 -3.179688 8.21875 -5.265625 C 6.195312 -7.359375 4.613281 -10.171875 3.46875 -13.703125 C 2.332031 -17.242188 1.765625 -21.351562 1.765625 -26.03125 Z M 13.78125 -26.03125 C 13.78125 -20.507812 14.578125 -16.367188 16.171875 -13.609375 C 17.773438 -10.859375 20.050781 -9.484375 23 -9.484375 C 25.90625 -9.484375 28.15625 -10.859375 29.75 -13.609375 C 31.351562 -16.367188 32.15625 -20.507812 32.15625 -26.03125 C 32.15625 -31.300781 31.34375 -35.390625 29.71875 -38.296875 C 28.101562 -41.203125 25.863281 -42.65625 23 -42.65625 C 20.132812 -42.65625 17.878906 -41.191406 16.234375 -38.265625 C 14.597656 -35.335938 13.78125 -31.257812 13.78125 -26.03125 Z M 13.78125 -26.03125 "/></g></g></g><g fill="#000000" fill-opacity="1"><g transform="translate(242.401619, 558.621741)"><g><path d="M 1.765625 -26.03125 C 1.765625 -34.625 3.804688 -41.28125 7.890625 -46 C 11.984375 -50.71875 17.019531 -53.078125 23 -53.078125 C 28.976562 -53.078125 34 -50.71875 38.0625 -46 C 42.132812 -41.28125 44.171875 -34.625 44.171875 -26.03125 C 44.171875 -21.351562 43.597656 -17.242188 42.453125 -13.703125 C 41.316406 -10.171875 39.75 -7.359375 37.75 -5.265625 C 35.75 -3.179688 33.515625 -1.625 31.046875 -0.59375 C 28.585938 0.4375 25.90625 0.953125 23 0.953125 C 20.09375 0.953125 17.40625 0.4375 14.9375 -0.59375 C 12.476562 -1.625 10.238281 -3.179688 8.21875 -5.265625 C 6.195312 -7.359375 4.613281 -10.171875 3.46875 -13.703125 C 2.332031 -17.242188 1.765625 -21.351562 1.765625 -26.03125 Z M 13.78125 -26.03125 C 13.78125 -20.507812 14.578125 -16.367188 16.171875 -13.609375 C 17.773438 -10.859375 20.050781 -9.484375 23 -9.484375 C 25.90625 -9.484375 28.15625 -10.859375 29.75 -13.609375 C 31.351562 -16.367188 32.15625 -20.507812 32.15625 -26.03125 C 32.15625 -31.300781 31.34375 -35.390625 29.71875 -38.296875 C 28.101562 -41.203125 25.863281 -42.65625 23 -42.65625 C 20.132812 -42.65625 17.878906 -41.191406 16.234375 -38.265625 C 14.597656 -35.335938 13.78125 -31.257812 13.78125 -26.03125 Z M 13.78125 -26.03125 "/></g></g></g><g fill="#000000" fill-opacity="1"><g transform="translate(292.434466, 558.621741)"><g><path d="M 5.6875 -32.421875 L 5.6875 -39.296875 C 5.726562 -44.140625 6.863281 -48.015625 9.09375 -50.921875 C 11.332031 -53.835938 14.429688 -55.296875 18.390625 -55.296875 C 20.078125 -55.296875 21.6875 -55.050781 23.21875 -54.5625 C 24.757812 -54.070312 25.863281 -53.578125 26.53125 -53.078125 L 27.609375 -52.375 L 23.703125 -44.484375 C 22.679688 -45.078125 21.5625 -45.375 20.34375 -45.375 C 18.957031 -45.375 18.03125 -44.898438 17.5625 -43.953125 C 17.101562 -43.003906 16.875 -41.347656 16.875 -38.984375 L 16.875 -32.421875 L 24.328125 -32.421875 L 24.328125 -23.890625 L 16.875 -23.890625 L 16.875 0 L 5.6875 0 L 5.6875 -23.890625 L 1.015625 -23.890625 L 1.015625 -32.421875 Z M 5.6875 -32.421875 "/></g></g></g><g fill="#000000" fill-opacity="1"><g transform="translate(320.231051, 558.621741)"><g><path d="M 3.796875 0 L 3.796875 -32.421875 L 14.96875 -32.421875 L 14.96875 -29 L 15.109375 -29 C 18.015625 -31.90625 21.109375 -33.359375 24.390625 -33.359375 C 26.742188 -33.359375 28.953125 -32.875 31.015625 -31.90625 C 33.085938 -30.9375 34.648438 -29.441406 35.703125 -27.421875 C 38.984375 -31.378906 42.5625 -33.359375 46.4375 -33.359375 C 49.894531 -33.359375 52.863281 -32.390625 55.34375 -30.453125 C 57.832031 -28.515625 59.078125 -25.484375 59.078125 -21.359375 L 59.078125 0 L 47.890625 0 L 47.890625 -18.328125 C 47.890625 -20.054688 47.414062 -21.5 46.46875 -22.65625 C 45.519531 -23.8125 44.097656 -24.390625 42.203125 -24.390625 C 40.566406 -24.390625 39.316406 -23.894531 38.453125 -22.90625 C 37.585938 -21.914062 37.113281 -20.722656 37.03125 -19.328125 L 37.03125 0 L 25.84375 0 L 25.84375 -18.328125 C 25.84375 -20.054688 25.367188 -21.5 24.421875 -22.65625 C 23.472656 -23.8125 22.050781 -24.390625 20.15625 -24.390625 C 18.425781 -24.390625 17.128906 -23.851562 16.265625 -22.78125 C 15.398438 -21.707031 14.96875 -20.429688 14.96875 -18.953125 L 14.96875 0 Z M 3.796875 0 "/></g></g></g></svg>