<svg xmlns="http://www.w3.org/2000/svg" xmlns:xlink="http://www.w3.org/1999/xlink" width="1080" zoomAndPan="magnify" viewBox="0 0 810 809.999993" height="1080" preserveAspectRatio="xMidYMid meet" version="1.0"><defs><g/><clipPath id="92357f09f0"><path d="M 278.707031 203.726562 L 368.769531 203.726562 L 368.769531 293.789062 L 278.707031 293.789062 Z M 278.707031 203.726562 " clip-rule="nonzero"/></clipPath><clipPath id="d3211a9384"><path d="M 237 165 L 367 165 L 367 295 L 237 295 Z M 237 165 " clip-rule="nonzero"/></clipPath><clipPath id="a1e100f34d"><path d="M 201.714844 258.582031 L 330.761719 129.535156 L 379.363281 178.136719 L 250.316406 307.183594 Z M 201.714844 258.582031 " clip-rule="nonzero"/></clipPath><clipPath id="ff2dca0d50"><path d="M 201.714844 258.582031 L 330.761719 129.535156 L 379.363281 178.136719 L 250.316406 307.183594 Z M 201.714844 258.582031 " clip-rule="nonzero"/></clipPath><clipPath id="a9a3b7ce0b"><path d="M 346.023438 357.769531 L 409.890625 357.769531 L 409.890625 560.335938 L 346.023438 560.335938 Z M 346.023438 357.769531 " clip-rule="nonzero"/></clipPath><clipPath id="72be0b0423"><path d="M 337.15625 257.265625 L 418.925781 257.265625 L 418.925781 298.742188 L 337.15625 298.742188 Z M 337.15625 257.265625 " clip-rule="nonzero"/></clipPath><clipPath id="6a6eedaa46"><path d="M 337.066406 298.492188 L 418.832031 298.492188 L 418.832031 339.96875 L 337.066406 339.96875 Z M 337.066406 298.492188 " clip-rule="nonzero"/></clipPath></defs><g clip-path="url(#92357f09f0)"><path fill="#f80303" d="M 278.707031 293.789062 C 278.707031 281.914062 281.042969 270.15625 285.589844 259.1875 C 290.132812 248.21875 296.792969 238.25 305.1875 229.855469 C 313.585938 221.457031 323.550781 214.800781 334.519531 210.253906 C 345.492188 205.710938 357.25 203.371094 369.121094 203.371094 L 369.121094 233.265625 C 361.175781 233.265625 353.304688 234.832031 345.960938 237.875 C 338.617188 240.917969 331.945312 245.375 326.328125 250.992188 C 320.707031 256.613281 316.25 263.285156 313.207031 270.628906 C 310.167969 277.972656 308.601562 285.839844 308.601562 293.789062 Z M 278.707031 293.789062 " fill-opacity="1" fill-rule="nonzero"/></g><g clip-path="url(#d3211a9384)"><g clip-path="url(#a1e100f34d)"><g clip-path="url(#ff2dca0d50)"><path fill="#f80303" d="M 366.351562 190.375 C 364.648438 190.378906 362.945312 190.425781 361.242188 190.511719 C 359.539062 190.597656 357.839844 190.726562 356.144531 190.898438 C 354.449219 191.070312 352.757812 191.28125 351.074219 191.53125 C 349.386719 191.785156 347.707031 192.082031 346.039062 192.414062 C 344.367188 192.75 342.703125 193.125 341.050781 193.542969 C 339.398438 193.960938 337.757812 194.417969 336.125 194.914062 C 334.496094 195.410156 332.878906 195.949219 331.273438 196.523438 C 329.667969 197.101562 328.082031 197.714844 326.507812 198.367188 C 324.933594 199.023438 323.375 199.714844 321.835938 200.445312 C 320.292969 201.175781 318.773438 201.941406 317.269531 202.746094 C 315.769531 203.554688 314.285156 204.394531 312.824219 205.269531 C 311.363281 206.148438 309.921875 207.0625 308.507812 208.007812 C 307.089844 208.957031 305.699219 209.9375 304.328125 210.953125 C 302.960938 211.96875 301.617188 213.019531 300.300781 214.101562 C 298.980469 215.183594 297.691406 216.296875 296.429688 217.441406 C 295.167969 218.585938 293.933594 219.761719 292.726562 220.964844 C 291.523438 222.171875 290.347656 223.40625 289.203125 224.667969 C 288.058594 225.929688 286.945312 227.222656 285.863281 228.539062 C 284.78125 229.855469 283.730469 231.199219 282.714844 232.566406 C 281.699219 233.9375 280.71875 235.328125 279.769531 236.746094 C 278.820312 238.164062 277.910156 239.601562 277.03125 241.0625 C 276.15625 242.523438 275.3125 244.007812 274.507812 245.507812 C 273.703125 247.011719 272.9375 248.535156 272.207031 250.074219 C 271.476562 251.613281 270.785156 253.171875 270.128906 254.746094 C 269.476562 256.320312 268.859375 257.910156 268.285156 259.511719 C 267.707031 261.117188 267.171875 262.734375 266.675781 264.367188 C 266.179688 265.996094 265.722656 267.636719 265.304688 269.289062 C 264.886719 270.941406 264.511719 272.605469 264.175781 274.277344 C 263.839844 275.949219 263.546875 277.625 263.292969 279.3125 C 263.039062 280.996094 262.828125 282.6875 262.660156 284.382812 C 262.488281 286.082031 262.359375 287.78125 262.273438 289.480469 C 262.1875 291.183594 262.140625 292.886719 262.136719 294.59375 L 237.65625 294.523438 C 237.664062 292.417969 237.71875 290.316406 237.828125 288.214844 C 237.933594 286.113281 238.09375 284.015625 238.304688 281.921875 C 238.515625 279.832031 238.777344 277.742188 239.089844 275.664062 C 239.402344 273.582031 239.765625 271.511719 240.179688 269.449219 C 240.59375 267.382812 241.058594 265.332031 241.574219 263.292969 C 242.085938 261.253906 242.652344 259.226562 243.265625 257.214844 C 243.878906 255.203125 244.542969 253.207031 245.253906 251.226562 C 245.964844 249.246094 246.722656 247.285156 247.53125 245.339844 C 248.339844 243.398438 249.195312 241.476562 250.09375 239.574219 C 250.996094 237.675781 251.945312 235.796875 252.9375 233.941406 C 253.929688 232.085938 254.96875 230.257812 256.050781 228.453125 C 257.136719 226.648438 258.261719 224.875 259.433594 223.125 C 260.601562 221.375 261.8125 219.65625 263.066406 217.96875 C 264.320312 216.277344 265.617188 214.621094 266.953125 212.996094 C 268.289062 211.367188 269.660156 209.777344 271.074219 208.21875 C 272.488281 206.660156 273.9375 205.136719 275.425781 203.648438 C 276.914062 202.160156 278.4375 200.710938 279.996094 199.296875 C 281.554688 197.882812 283.148438 196.507812 284.773438 195.175781 C 286.398438 193.839844 288.054688 192.542969 289.746094 191.289062 C 291.433594 190.035156 293.15625 188.824219 294.902344 187.652344 C 296.652344 186.484375 298.429688 185.355469 300.230469 184.273438 C 302.035156 183.191406 303.863281 182.152344 305.71875 181.160156 C 307.574219 180.167969 309.453125 179.21875 311.351562 178.316406 C 313.253906 177.414062 315.175781 176.5625 317.117188 175.753906 C 319.0625 174.945312 321.023438 174.1875 323.003906 173.476562 C 324.984375 172.765625 326.980469 172.101562 328.992188 171.488281 C 331.003906 170.875 333.03125 170.308594 335.070312 169.796875 C 337.109375 169.28125 339.164062 168.816406 341.226562 168.402344 C 343.289062 167.988281 345.359375 167.625 347.441406 167.3125 C 349.519531 167 351.609375 166.738281 353.703125 166.527344 C 355.796875 166.316406 357.890625 166.15625 359.992188 166.050781 C 362.09375 165.941406 364.199219 165.886719 366.300781 165.878906 Z M 366.351562 190.375 " fill-opacity="1" fill-rule="nonzero"/></g></g></g><g clip-path="url(#a9a3b7ce0b)"><path fill="#fff505" d="M 346.023438 357.769531 L 409.890625 357.769531 L 409.890625 560.351562 L 346.023438 560.351562 Z M 346.023438 357.769531 " fill-opacity="1" fill-rule="nonzero"/></g><g fill="#f80303" fill-opacity="1"><g transform="translate(62.334881, 581.999908)"><g><path d="M 234.09375 -178.75 C 253.207031 -157.789062 262.765625 -132.179688 262.765625 -101.921875 C 262.765625 -71.660156 253.207031 -46.113281 234.09375 -25.28125 C 214.988281 -4.445312 190.703125 5.96875 161.234375 5.96875 C 134.160156 5.96875 111.867188 -3.71875 94.359375 -23.09375 L 93.5625 -23.09375 L 93.5625 0 L 23.890625 0 L 23.890625 -342.390625 L 94.359375 -342.390625 L 94.359375 -184.734375 C 111.867188 -201.710938 134.160156 -210.203125 161.234375 -210.203125 C 190.703125 -210.203125 214.988281 -199.71875 234.09375 -178.75 Z M 174.78125 -67.46875 C 183.539062 -76.363281 187.921875 -87.84375 187.921875 -101.90625 C 187.921875 -115.976562 183.335938 -127.523438 174.171875 -136.546875 C 165.015625 -145.578125 153.671875 -150.09375 140.140625 -150.09375 C 126.867188 -150.09375 115.65625 -145.578125 106.5 -136.546875 C 97.34375 -127.523438 92.765625 -115.984375 92.765625 -101.921875 C 92.765625 -88.117188 97.207031 -76.703125 106.09375 -67.671875 C 114.988281 -58.648438 126.335938 -54.140625 140.140625 -54.140625 C 154.472656 -54.140625 166.019531 -58.582031 174.78125 -67.46875 Z M 174.78125 -67.46875 "/></g></g></g><g fill="#f80303" fill-opacity="1"><g transform="translate(421.741182, 568.119951)"><g><path d="M 235.9375 -180.375 C 255.195312 -159.375 264.828125 -133.625 264.828125 -103.125 C 264.828125 -72.625 255.195312 -46.804688 235.9375 -25.671875 C 216.675781 -4.546875 192.203125 6.015625 162.515625 6.015625 C 135.222656 6.015625 112.75 -2.539062 95.09375 -19.65625 L 95.09375 104.328125 L 24.078125 104.328125 L 24.078125 -205.84375 L 94.296875 -205.84375 L 94.296875 -182.578125 L 95.09375 -182.578125 C 112.75 -202.109375 135.222656 -211.875 162.515625 -211.875 C 192.203125 -211.875 216.675781 -201.375 235.9375 -180.375 Z M 175.546875 -68.21875 C 184.773438 -77.3125 189.390625 -88.945312 189.390625 -103.125 C 189.390625 -117.300781 184.972656 -128.867188 176.140625 -137.828125 C 167.316406 -146.796875 155.6875 -151.28125 141.25 -151.28125 C 127.332031 -151.28125 115.894531 -146.726562 106.9375 -137.625 C 97.976562 -128.53125 93.5 -117.03125 93.5 -103.125 C 93.5 -88.945312 98.113281 -77.3125 107.34375 -68.21875 C 116.570312 -59.125 127.875 -54.578125 141.25 -54.578125 C 154.882812 -54.578125 166.316406 -59.125 175.546875 -68.21875 Z M 175.546875 -68.21875 "/></g></g></g><g clip-path="url(#72be0b0423)"><path fill="#fff505" d="M 377.984375 257.519531 C 376.644531 257.519531 375.3125 257.585938 373.980469 257.71875 C 372.652344 257.847656 371.328125 258.042969 370.019531 258.304688 C 368.707031 258.566406 367.410156 258.890625 366.132812 259.277344 C 364.851562 259.667969 363.59375 260.117188 362.359375 260.628906 C 361.125 261.140625 359.917969 261.710938 358.738281 262.34375 C 357.558594 262.972656 356.414062 263.660156 355.300781 264.402344 C 354.191406 265.144531 353.117188 265.941406 352.082031 266.789062 C 351.050781 267.636719 350.058594 268.535156 349.113281 269.480469 C 348.167969 270.425781 347.273438 271.414062 346.425781 272.445312 C 345.578125 273.480469 344.78125 274.554688 344.039062 275.664062 C 343.296875 276.777344 342.609375 277.921875 341.976562 279.101562 C 341.347656 280.28125 340.777344 281.488281 340.265625 282.722656 C 339.753906 283.957031 339.304688 285.214844 338.914062 286.496094 C 338.527344 287.773438 338.203125 289.070312 337.941406 290.382812 C 337.679688 291.691406 337.484375 293.015625 337.355469 294.34375 C 337.222656 295.675781 337.15625 297.007812 337.15625 298.347656 L 418.808594 298.347656 C 418.808594 297.007812 418.742188 295.675781 418.609375 294.34375 C 418.480469 293.015625 418.285156 291.691406 418.023438 290.382812 C 417.761719 289.070312 417.4375 287.773438 417.050781 286.496094 C 416.660156 285.214844 416.210938 283.957031 415.699219 282.722656 C 415.1875 281.488281 414.617188 280.28125 413.988281 279.101562 C 413.355469 277.921875 412.671875 276.777344 411.925781 275.664062 C 411.183594 274.554688 410.390625 273.480469 409.539062 272.445312 C 408.691406 271.414062 407.796875 270.425781 406.851562 269.480469 C 405.90625 268.535156 404.914062 267.636719 403.882812 266.789062 C 402.847656 265.941406 401.777344 265.144531 400.664062 264.402344 C 399.550781 263.660156 398.40625 262.972656 397.226562 262.34375 C 396.046875 261.710938 394.839844 261.140625 393.605469 260.628906 C 392.371094 260.117188 391.113281 259.667969 389.832031 259.277344 C 388.554688 258.890625 387.257812 258.566406 385.949219 258.304688 C 384.636719 258.042969 383.316406 257.847656 381.984375 257.71875 C 380.652344 257.585938 379.320312 257.519531 377.984375 257.519531 Z M 377.984375 257.519531 " fill-opacity="1" fill-rule="nonzero"/></g><g clip-path="url(#6a6eedaa46)"><path fill="#f80303" d="M 378.007812 339.710938 C 379.34375 339.710938 380.679688 339.648438 382.007812 339.515625 C 383.339844 339.386719 384.660156 339.1875 385.972656 338.929688 C 387.285156 338.667969 388.578125 338.34375 389.859375 337.953125 C 391.136719 337.566406 392.394531 337.117188 393.632812 336.605469 C 394.867188 336.09375 396.074219 335.523438 397.253906 334.890625 C 398.433594 334.261719 399.578125 333.574219 400.6875 332.832031 C 401.800781 332.089844 402.875 331.292969 403.90625 330.445312 C 404.941406 329.597656 405.929688 328.699219 406.875 327.753906 C 407.820312 326.808594 408.71875 325.820312 409.566406 324.785156 C 410.414062 323.753906 411.210938 322.679688 411.953125 321.570312 C 412.695312 320.457031 413.382812 319.3125 414.011719 318.132812 C 414.644531 316.953125 415.214844 315.746094 415.726562 314.511719 C 416.238281 313.277344 416.6875 312.019531 417.074219 310.738281 C 417.464844 309.460938 417.789062 308.164062 418.046875 306.851562 C 418.308594 305.539062 418.503906 304.21875 418.636719 302.890625 C 418.765625 301.558594 418.832031 300.226562 418.832031 298.886719 L 337.183594 298.886719 C 337.183594 300.226562 337.25 301.558594 337.378906 302.890625 C 337.511719 304.21875 337.707031 305.539062 337.96875 306.851562 C 338.226562 308.164062 338.550781 309.460938 338.941406 310.738281 C 339.328125 312.019531 339.777344 313.277344 340.289062 314.511719 C 340.800781 315.746094 341.375 316.953125 342.003906 318.132812 C 342.632812 319.3125 343.320312 320.457031 344.0625 321.570312 C 344.804688 322.679688 345.601562 323.753906 346.449219 324.785156 C 347.296875 325.820312 348.195312 326.808594 349.140625 327.753906 C 350.085938 328.699219 351.074219 329.597656 352.109375 330.445312 C 353.140625 331.292969 354.214844 332.089844 355.328125 332.832031 C 356.4375 333.574219 357.585938 334.261719 358.761719 334.890625 C 359.941406 335.523438 361.148438 336.09375 362.386719 336.605469 C 363.621094 337.117188 364.878906 337.566406 366.15625 337.953125 C 367.4375 338.34375 368.730469 338.667969 370.042969 338.929688 C 371.355469 339.1875 372.675781 339.386719 374.007812 339.515625 C 375.335938 339.648438 376.671875 339.710938 378.007812 339.710938 Z M 378.007812 339.710938 " fill-opacity="1" fill-rule="nonzero"/></g><g fill="#000000" fill-opacity="1"><g transform="translate(443.005016, 310.986784)"><g><path d="M 6.453125 0 L 6.453125 -55.125 L 25.46875 -55.125 L 25.46875 -47.171875 L 25.6875 -47.171875 C 25.820312 -47.460938 26.050781 -47.820312 26.375 -48.25 C 26.695312 -48.675781 27.394531 -49.425781 28.46875 -50.5 C 29.550781 -51.570312 30.695312 -52.535156 31.90625 -53.390625 C 33.125 -54.253906 34.703125 -55.023438 36.640625 -55.703125 C 38.578125 -56.390625 40.546875 -56.734375 42.546875 -56.734375 C 44.628906 -56.734375 46.671875 -56.445312 48.671875 -55.875 C 50.679688 -55.300781 52.148438 -54.726562 53.078125 -54.15625 L 54.59375 -53.296875 L 46.640625 -37.171875 C 44.273438 -39.179688 40.976562 -40.1875 36.75 -40.1875 C 34.457031 -40.1875 32.488281 -39.679688 30.84375 -38.671875 C 29.195312 -37.671875 28.03125 -36.453125 27.34375 -35.015625 C 26.664062 -33.585938 26.179688 -32.375 25.890625 -31.375 C 25.609375 -30.375 25.46875 -29.585938 25.46875 -29.015625 L 25.46875 0 Z M 6.453125 0 "/></g></g></g><g fill="#000000" fill-opacity="1"><g transform="translate(495.659289, 310.986784)"><g><path d="M 10.203125 -6.828125 C 5.046875 -12.453125 2.46875 -19.34375 2.46875 -27.5 C 2.46875 -35.664062 5.046875 -42.578125 10.203125 -48.234375 C 15.359375 -53.898438 21.914062 -56.734375 29.875 -56.734375 C 37.175781 -56.734375 43.191406 -54.441406 47.921875 -49.859375 L 47.921875 -55.125 L 66.9375 -55.125 L 66.9375 0 L 48.140625 0 L 48.140625 -6.234375 L 47.921875 -6.234375 C 43.191406 -1.003906 37.175781 1.609375 29.875 1.609375 C 21.914062 1.609375 15.359375 -1.203125 10.203125 -6.828125 Z M 26.375 -36.859375 C 23.90625 -34.421875 22.671875 -31.300781 22.671875 -27.5 C 22.671875 -23.707031 23.851562 -20.609375 26.21875 -18.203125 C 28.582031 -15.804688 31.695312 -14.609375 35.5625 -14.609375 C 39.289062 -14.609375 42.351562 -15.828125 44.75 -18.265625 C 47.15625 -20.703125 48.359375 -23.785156 48.359375 -27.515625 C 48.359375 -31.304688 47.117188 -34.421875 44.640625 -36.859375 C 42.171875 -39.296875 39.144531 -40.515625 35.5625 -40.515625 C 31.914062 -40.515625 28.851562 -39.296875 26.375 -36.859375 Z M 26.375 -36.859375 "/></g></g></g><g fill="#000000" fill-opacity="1"><g transform="translate(569.052899, 310.986784)"><g><path d="M 10.203125 -6.828125 C 5.046875 -12.453125 2.46875 -19.34375 2.46875 -27.5 C 2.46875 -35.664062 5.046875 -42.578125 10.203125 -48.234375 C 15.359375 -53.898438 21.914062 -56.734375 29.875 -56.734375 C 37.175781 -56.734375 43.191406 -54.441406 47.921875 -49.859375 L 47.921875 -92.40625 L 66.9375 -92.40625 L 66.9375 0 L 48.140625 0 L 48.140625 -6.234375 L 47.921875 -6.234375 C 43.191406 -1.003906 37.175781 1.609375 29.875 1.609375 C 21.914062 1.609375 15.359375 -1.203125 10.203125 -6.828125 Z M 26.375 -36.859375 C 23.90625 -34.421875 22.671875 -31.300781 22.671875 -27.5 C 22.671875 -23.707031 23.851562 -20.609375 26.21875 -18.203125 C 28.582031 -15.804688 31.695312 -14.609375 35.5625 -14.609375 C 39.289062 -14.609375 42.351562 -15.828125 44.75 -18.265625 C 47.15625 -20.703125 48.359375 -23.785156 48.359375 -27.515625 C 48.359375 -31.304688 47.117188 -34.421875 44.640625 -36.859375 C 42.171875 -39.296875 39.144531 -40.515625 35.5625 -40.515625 C 31.914062 -40.515625 28.851562 -39.296875 26.375 -36.859375 Z M 26.375 -36.859375 "/></g></g></g><g fill="#000000" fill-opacity="1"><g transform="translate(642.446499, 310.986784)"><g><path d="M 8.265625 -85.859375 C 10.492188 -88.078125 13.144531 -89.1875 16.21875 -89.1875 C 19.300781 -89.1875 21.953125 -88.078125 24.171875 -85.859375 C 26.398438 -83.640625 27.515625 -80.988281 27.515625 -77.90625 C 27.515625 -74.820312 26.398438 -72.171875 24.171875 -69.953125 C 21.953125 -67.734375 19.300781 -66.625 16.21875 -66.625 C 13.144531 -66.625 10.492188 -67.734375 8.265625 -69.953125 C 6.046875 -72.171875 4.9375 -74.820312 4.9375 -77.90625 C 4.9375 -80.988281 6.046875 -83.640625 8.265625 -85.859375 Z M 6.453125 -55.125 L 6.453125 0 L 25.46875 0 L 25.46875 -55.125 Z M 6.453125 -55.125 "/></g></g></g><g fill="#000000" fill-opacity="1"><g transform="translate(674.898728, 310.986784)"><g><path d="M 11.65625 -6.546875 C 5.53125 -11.992188 2.46875 -18.976562 2.46875 -27.5 C 2.46875 -36.03125 5.65625 -43.035156 12.03125 -48.515625 C 18.40625 -53.992188 26.285156 -56.734375 35.671875 -56.734375 C 44.910156 -56.734375 52.703125 -53.972656 59.046875 -48.453125 C 65.390625 -42.941406 68.5625 -35.957031 68.5625 -27.5 C 68.5625 -19.050781 65.460938 -12.085938 59.265625 -6.609375 C 53.066406 -1.128906 45.203125 1.609375 35.671875 1.609375 C 25.785156 1.609375 17.78125 -1.109375 11.65625 -6.546875 Z M 26.375 -36.859375 C 23.90625 -34.421875 22.671875 -31.300781 22.671875 -27.5 C 22.671875 -23.707031 23.851562 -20.609375 26.21875 -18.203125 C 28.582031 -15.804688 31.695312 -14.609375 35.5625 -14.609375 C 39.289062 -14.609375 42.351562 -15.828125 44.75 -18.265625 C 47.15625 -20.703125 48.359375 -23.785156 48.359375 -27.515625 C 48.359375 -31.304688 47.117188 -34.421875 44.640625 -36.859375 C 42.171875 -39.296875 39.144531 -40.515625 35.5625 -40.515625 C 31.914062 -40.515625 28.851562 -39.296875 26.375 -36.859375 Z M 26.375 -36.859375 "/></g></g></g><g fill="#000000" fill-opacity="1"><g transform="translate(97.792197, 670.994642)"><g><path d="M 1.6875 -28.4375 L 1.6875 -39.3125 L 15.421875 -48.1875 L 20.625 -48.1875 L 20.625 0 L 9.640625 0 L 9.640625 -33.578125 Z M 1.6875 -28.4375 "/></g></g></g><g fill="#000000" fill-opacity="1"><g transform="translate(125.70987, 670.994642)"><g><path d="M 1.640625 -24.0625 C 1.640625 -32.007812 3.523438 -38.160156 7.296875 -42.515625 C 11.078125 -46.878906 15.726562 -49.0625 21.25 -49.0625 C 26.78125 -49.0625 31.425781 -46.878906 35.1875 -42.515625 C 38.945312 -38.160156 40.828125 -32.007812 40.828125 -24.0625 C 40.828125 -19.738281 40.300781 -15.941406 39.25 -12.671875 C 38.195312 -9.398438 36.742188 -6.800781 34.890625 -4.875 C 33.046875 -2.945312 30.984375 -1.503906 28.703125 -0.546875 C 26.429688 0.398438 23.953125 0.875 21.265625 0.875 C 18.578125 0.875 16.09375 0.398438 13.8125 -0.546875 C 11.53125 -1.503906 9.457031 -2.945312 7.59375 -4.875 C 5.726562 -6.800781 4.269531 -9.398438 3.21875 -12.671875 C 2.164062 -15.941406 1.640625 -19.738281 1.640625 -24.0625 Z M 12.734375 -24.0625 C 12.734375 -18.957031 13.472656 -15.128906 14.953125 -12.578125 C 16.429688 -10.035156 18.535156 -8.765625 21.265625 -8.765625 C 23.953125 -8.765625 26.035156 -10.035156 27.515625 -12.578125 C 28.992188 -15.128906 29.734375 -18.957031 29.734375 -24.0625 C 29.734375 -28.925781 28.984375 -32.703125 27.484375 -35.390625 C 25.984375 -38.078125 23.90625 -39.421875 21.25 -39.421875 C 18.601562 -39.421875 16.519531 -38.066406 15 -35.359375 C 13.488281 -32.660156 12.734375 -28.894531 12.734375 -24.0625 Z M 12.734375 -24.0625 "/></g></g></g><g fill="#000000" fill-opacity="1"><g transform="translate(171.965999, 670.994642)"><g><path d="M 33.875 -48.1875 L 19.6875 -31.65625 C 20.5 -32.125 21.644531 -32.359375 23.125 -32.359375 C 24.84375 -32.359375 26.578125 -32 28.328125 -31.28125 C 30.078125 -30.5625 31.71875 -29.53125 33.25 -28.1875 C 34.789062 -26.84375 36.046875 -25.054688 37.015625 -22.828125 C 37.992188 -20.609375 38.484375 -18.160156 38.484375 -15.484375 C 38.484375 -12.753906 37.96875 -10.304688 36.9375 -8.140625 C 35.90625 -5.984375 34.523438 -4.269531 32.796875 -3 C 31.066406 -1.738281 29.164062 -0.773438 27.09375 -0.109375 C 25.03125 0.546875 22.875 0.875 20.625 0.875 C 15.207031 0.875 10.648438 -0.695312 6.953125 -3.84375 C 3.253906 -7 1.40625 -10.878906 1.40625 -15.484375 C 1.40625 -19.367188 1.945312 -22.566406 3.03125 -25.078125 C 4.125 -27.597656 6.113281 -30.800781 9 -34.6875 L 20.328125 -48.1875 Z M 12.796875 -15.484375 C 12.796875 -13.378906 13.472656 -11.632812 14.828125 -10.25 C 16.191406 -8.863281 17.941406 -8.171875 20.078125 -8.171875 C 22.222656 -8.171875 24 -8.863281 25.40625 -10.25 C 26.8125 -11.632812 27.515625 -13.378906 27.515625 -15.484375 C 27.515625 -17.617188 26.800781 -19.394531 25.375 -20.8125 C 23.957031 -22.238281 22.195312 -22.953125 20.09375 -22.953125 C 18.0625 -22.953125 16.335938 -22.238281 14.921875 -20.8125 C 13.503906 -19.394531 12.796875 -17.617188 12.796875 -15.484375 Z M 12.796875 -15.484375 "/></g></g></g><g fill="#000000" fill-opacity="1"><g transform="translate(216.002826, 670.994642)"><g><path d="M 10.15625 -12.5 C 12.03125 -12.5 13.617188 -11.84375 14.921875 -10.53125 C 16.222656 -9.226562 16.875 -7.644531 16.875 -5.78125 C 16.875 -3.945312 16.222656 -2.378906 14.921875 -1.078125 C 13.617188 0.222656 12.03125 0.875 10.15625 0.875 C 8.332031 0.875 6.765625 0.222656 5.453125 -1.078125 C 4.148438 -2.378906 3.5 -3.945312 3.5 -5.78125 C 3.5 -7.644531 4.148438 -9.226562 5.453125 -10.53125 C 6.765625 -11.84375 8.332031 -12.5 10.15625 -12.5 Z M 10.15625 -12.5 "/></g></g></g><g fill="#000000" fill-opacity="1"><g transform="translate(240.18272, 670.994642)"><g><path d="M 1.640625 -24.0625 C 1.640625 -32.007812 3.523438 -38.160156 7.296875 -42.515625 C 11.078125 -46.878906 15.726562 -49.0625 21.25 -49.0625 C 26.78125 -49.0625 31.425781 -46.878906 35.1875 -42.515625 C 38.945312 -38.160156 40.828125 -32.007812 40.828125 -24.0625 C 40.828125 -19.738281 40.300781 -15.941406 39.25 -12.671875 C 38.195312 -9.398438 36.742188 -6.800781 34.890625 -4.875 C 33.046875 -2.945312 30.984375 -1.503906 28.703125 -0.546875 C 26.429688 0.398438 23.953125 0.875 21.265625 0.875 C 18.578125 0.875 16.09375 0.398438 13.8125 -0.546875 C 11.53125 -1.503906 9.457031 -2.945312 7.59375 -4.875 C 5.726562 -6.800781 4.269531 -9.398438 3.21875 -12.671875 C 2.164062 -15.941406 1.640625 -19.738281 1.640625 -24.0625 Z M 12.734375 -24.0625 C 12.734375 -18.957031 13.472656 -15.128906 14.953125 -12.578125 C 16.429688 -10.035156 18.535156 -8.765625 21.265625 -8.765625 C 23.953125 -8.765625 26.035156 -10.035156 27.515625 -12.578125 C 28.992188 -15.128906 29.734375 -18.957031 29.734375 -24.0625 C 29.734375 -28.925781 28.984375 -32.703125 27.484375 -35.390625 C 25.984375 -38.078125 23.90625 -39.421875 21.25 -39.421875 C 18.601562 -39.421875 16.519531 -38.066406 15 -35.359375 C 13.488281 -32.660156 12.734375 -28.894531 12.734375 -24.0625 Z M 12.734375 -24.0625 "/></g></g></g><g fill="#000000" fill-opacity="1"><g transform="translate(286.438845, 670.994642)"><g><path d="M 1.640625 -24.0625 C 1.640625 -32.007812 3.523438 -38.160156 7.296875 -42.515625 C 11.078125 -46.878906 15.726562 -49.0625 21.25 -49.0625 C 26.78125 -49.0625 31.425781 -46.878906 35.1875 -42.515625 C 38.945312 -38.160156 40.828125 -32.007812 40.828125 -24.0625 C 40.828125 -19.738281 40.300781 -15.941406 39.25 -12.671875 C 38.195312 -9.398438 36.742188 -6.800781 34.890625 -4.875 C 33.046875 -2.945312 30.984375 -1.503906 28.703125 -0.546875 C 26.429688 0.398438 23.953125 0.875 21.265625 0.875 C 18.578125 0.875 16.09375 0.398438 13.8125 -0.546875 C 11.53125 -1.503906 9.457031 -2.945312 7.59375 -4.875 C 5.726562 -6.800781 4.269531 -9.398438 3.21875 -12.671875 C 2.164062 -15.941406 1.640625 -19.738281 1.640625 -24.0625 Z M 12.734375 -24.0625 C 12.734375 -18.957031 13.472656 -15.128906 14.953125 -12.578125 C 16.429688 -10.035156 18.535156 -8.765625 21.265625 -8.765625 C 23.953125 -8.765625 26.035156 -10.035156 27.515625 -12.578125 C 28.992188 -15.128906 29.734375 -18.957031 29.734375 -24.0625 C 29.734375 -28.925781 28.984375 -32.703125 27.484375 -35.390625 C 25.984375 -38.078125 23.90625 -39.421875 21.25 -39.421875 C 18.601562 -39.421875 16.519531 -38.066406 15 -35.359375 C 13.488281 -32.660156 12.734375 -28.894531 12.734375 -24.0625 Z M 12.734375 -24.0625 "/></g></g></g><g fill="#000000" fill-opacity="1"><g transform="translate(332.694969, 670.994642)"><g><path d="M 5.25 -29.96875 L 5.25 -36.328125 C 5.289062 -40.804688 6.34375 -44.390625 8.40625 -47.078125 C 10.46875 -49.765625 13.332031 -51.109375 17 -51.109375 C 18.550781 -51.109375 20.035156 -50.882812 21.453125 -50.4375 C 22.878906 -49.988281 23.90625 -49.53125 24.53125 -49.0625 L 25.53125 -48.421875 L 21.90625 -41.125 C 20.96875 -41.664062 19.9375 -41.9375 18.8125 -41.9375 C 17.519531 -41.9375 16.660156 -41.5 16.234375 -40.625 C 15.804688 -39.75 15.59375 -38.21875 15.59375 -36.03125 L 15.59375 -29.96875 L 22.484375 -29.96875 L 22.484375 -22.078125 L 15.59375 -22.078125 L 15.59375 0 L 5.25 0 L 5.25 -22.078125 L 0.9375 -22.078125 L 0.9375 -29.96875 Z M 5.25 -29.96875 "/></g></g></g><g fill="#000000" fill-opacity="1"><g transform="translate(358.393333, 670.994642)"><g><path d="M 3.5 0 L 3.5 -29.96875 L 13.84375 -29.96875 L 13.84375 -26.8125 L 13.953125 -26.8125 C 16.640625 -29.5 19.503906 -30.84375 22.546875 -30.84375 C 24.722656 -30.84375 26.765625 -30.394531 28.671875 -29.5 C 30.585938 -28.601562 32.03125 -27.21875 33 -25.34375 C 36.039062 -29.007812 39.347656 -30.84375 42.921875 -30.84375 C 46.117188 -30.84375 48.863281 -29.945312 51.15625 -28.15625 C 53.457031 -26.363281 54.609375 -23.554688 54.609375 -19.734375 L 54.609375 0 L 44.265625 0 L 44.265625 -16.9375 C 44.265625 -18.53125 43.828125 -19.863281 42.953125 -20.9375 C 42.078125 -22.007812 40.765625 -22.546875 39.015625 -22.546875 C 37.492188 -22.546875 36.332031 -22.085938 35.53125 -21.171875 C 34.738281 -20.253906 34.300781 -19.15625 34.21875 -17.875 L 34.21875 0 L 23.890625 0 L 23.890625 -16.9375 C 23.890625 -18.53125 23.453125 -19.863281 22.578125 -20.9375 C 21.703125 -22.007812 20.382812 -22.546875 18.625 -22.546875 C 17.03125 -22.546875 15.832031 -22.046875 15.03125 -21.046875 C 14.238281 -20.054688 13.84375 -18.878906 13.84375 -17.515625 L 13.84375 0 Z M 3.5 0 "/></g></g></g></svg>